<svg aria-hidden="true" style="position: absolute; width: 0; height: 0; overflow: hidden;" version="1.1"
  xmlns="http://www.w3.org/2000/svg"
  xmlns:xlink="http://www.w3.org/1999/xlink">
  <defs>
    <symbol id="icon-tornado" viewBox="0 0 32 32">
      <path d="M27.959 4.349v0 0c-0.506 2.062-5.667 3.683-11.959 3.683-5.076 0-9.416-1.055-11.17-2.545 1.418 1.734 4.566 3.848 2.833 6.241-5.655 5.060-3.561 9.273-1.856 10.774 3.656 3.218 6.196 3.517 8.568 4.47 2.393 0.962 2.901 2.387 2.901 2.387s1.1-2.134-4.672-4.669c-4.652-2.043-0.872-6.293 6.243-10.591 6.023-3.638 9.455-7.655 9.112-9.75zM3.518 3.097c1.042-1.71 5.596-3.097 12.499-3.097s11.368 1.647 12.499 3.097c1.562 2.003-0.88 6.735-8.333 11.355-6.354 3.939-11.039 7.769-7.291 9.29 8.925 3.622 4.166 8.258 4.166 8.258s0-3.097-3.125-4.129c-5.282-1.745-7.291-3.097-9.374-5.161-1.576-1.562-3.272-6.491 2.083-11.355 2.665-2.42-5.123-4.977-3.125-8.258v0zM27 4.032c0-1.657-4.925-3-11-3s-11 1.343-11 3c0 1.657 4.925 3 11 3s11-1.343 11-3v0z"></path>
    </symbol>
    <symbol id="icon-tornado1" viewBox="0 0 32 32">
      <path d="M3.518 3.097c1.042-1.71 5.596-3.097 12.499-3.097s11.368 1.647 12.499 3.097c1.562 2.003-0.88 6.735-8.333 11.355-6.354 3.939-11.039 7.769-7.291 9.29 8.925 3.622 4.166 8.258 4.166 8.258s0-3.097-3.125-4.129c-5.282-1.745-7.291-3.097-9.374-5.161-1.576-1.562-3.272-6.491 2.083-11.355 2.665-2.42-5.123-4.977-3.125-8.258v0zM27 4.032c0-1.657-4.925-3-11-3s-11 1.343-11 3c0 1.657 4.925 3 11 3s11-1.343 11-3v0z"></path>
    </symbol>
    <symbol id="icon-file-mp3" viewBox="0 0 32 32">
      <path d="M8.007 10h16.986c1.671 0 3.007 1.343 3.007 2.999v7.002c0 1.657-1.346 2.999-3.007 2.999h-16.986c-1.671 0-3.007-1.343-3.007-2.999v-7.002c0-1.657 1.346-2.999 3.007-2.999zM7.995 11c-1.102 0-1.995 0.9-1.995 1.992v7.016c0 1.1 0.902 1.992 1.995 1.992h17.011c1.102 0 1.995-0.9 1.995-1.992v-7.016c0-1.1-0.902-1.992-1.995-1.992h-17.011zM10.5 16l-1.5-3h-1v7h1v-5l1 2h1l1-2v5h1v-7h-1l-1.5 3zM20 15c0-1.112 0.898-2 2.005-2h0.99c1.111 0 2.005 0.895 2.005 2 0 0.6-0.262 1.135-0.677 1.501 0.415 0.366 0.677 0.902 0.677 1.499 0 1.112-0.898 2-2.005 2h-0.99c-1.111 0-2.005-0.895-2.005-2h1c0 0.552 0.443 1 0.999 1h1.002c0.552 0 0.999-0.444 0.999-1 0-0.552-0.443-1-0.999-1h-1.001v-1h1.001c0.552 0 0.999-0.444 0.999-1 0-0.552-0.443-1-0.999-1h-1.002c-0.552 0-0.999 0.444-0.999 1h-1zM14 15v-2h2.995c1.111 0 2.005 0.895 2.005 2 0 1.112-0.898 2-2.005 2h-1.995v3h-1v-5zM15 14v2h2.001c0.552 0 0.999-0.444 0.999-1 0-0.552-0.443-1-0.999-1h-2.001z"></path>
    </symbol>
    <symbol id="icon-file-mp31" viewBox="0 0 32 32">
      <path d="M8.007 10h16.986c1.671 0 3.007 1.343 3.007 2.999v7.002c0 1.657-1.346 2.999-3.007 2.999h-16.986c-1.671 0-3.007-1.343-3.007-2.999v-7.002c0-1.657 1.346-2.999 3.007-2.999zM10.5 16l-1.5-3h-1v7h1v-5l1 2h1l1-2v5h1v-7h-1l-1.5 3zM20 15h1c0-0.556 0.447-1 0.999-1h1.002c0.556 0 0.999 0.448 0.999 1 0 0.556-0.447 1-0.999 1h-1.001v1h1.001c0.556 0 0.999 0.448 0.999 1 0 0.556-0.447 1-0.999 1h-1.002c-0.556 0-0.999-0.448-0.999-1h-1c0 1.105 0.894 2 2.005 2h0.99c1.107 0 2.005-0.888 2.005-2 0-0.597-0.261-1.133-0.677-1.499 0.415-0.365 0.677-0.9 0.677-1.501 0-1.105-0.894-2-2.005-2h-0.99c-1.107 0-2.005 0.888-2.005 2zM14 15v5h1v-3h1.995c1.107 0 2.005-0.888 2.005-2 0-1.105-0.894-2-2.005-2h-2.995v2zM15 14v2h2.001c0.552 0 0.999-0.444 0.999-1 0-0.552-0.443-1-0.999-1h-2.001z"></path>
    </symbol>
    <symbol id="icon-file-mp4" viewBox="0 0 32 32">
      <path d="M8.007 10h16.986c1.671 0 3.007 1.343 3.007 2.999v7.002c0 1.657-1.346 2.999-3.007 2.999h-16.986c-1.671 0-3.007-1.343-3.007-2.999v-7.002c0-1.657 1.346-2.999 3.007-2.999zM7.995 11c-1.102 0-1.995 0.9-1.995 1.992v7.016c0 1.1 0.902 1.992 1.995 1.992h17.011c1.102 0 1.995-0.9 1.995-1.992v-7.016c0-1.1-0.902-1.992-1.995-1.992h-17.011zM23 17h-1.8l1.8-2.5v2.5zM23 18v2h1v-2h1v-1h-1v-4h-1l-3 4v1h3zM10.5 16l-1.5-3h-1v7h1v-5l1 2h1l1-2v5h1v-7h-1l-1.5 3zM14 15v-2h2.995c1.111 0 2.005 0.895 2.005 2 0 1.112-0.898 2-2.005 2h-1.995v3h-1v-5zM15 14v2h2.001c0.552 0 0.999-0.444 0.999-1 0-0.552-0.443-1-0.999-1h-2.001z"></path>
    </symbol>
    <symbol id="icon-file-mp41" viewBox="0 0 32 32">
      <path d="M8.007 10h16.986c1.671 0 3.007 1.343 3.007 2.999v7.002c0 1.657-1.346 2.999-3.007 2.999h-16.986c-1.671 0-3.007-1.343-3.007-2.999v-7.002c0-1.657 1.346-2.999 3.007-2.999zM23 17v-2.5l-1.8 2.5h1.8zM23 18v2h1v-2h1v-1h-1v-4h-1l-3 4v1h3zM10.5 16l-1.5-3h-1v7h1v-5l1 2h1l1-2v5h1v-7h-1l-1.5 3zM14 15v5h1v-3h1.995c1.107 0 2.005-0.888 2.005-2 0-1.105-0.894-2-2.005-2h-2.995v2zM15 14v2h2.001c0.552 0 0.999-0.444 0.999-1 0-0.552-0.443-1-0.999-1h-2.001z"></path>
    </symbol>
    <symbol id="icon-file-mov" viewBox="0 0 32 32">
      <path d="M8.007 10h16.986c1.671 0 3.007 1.343 3.007 2.999v7.002c0 1.657-1.346 2.999-3.007 2.999h-16.986c-1.671 0-3.007-1.343-3.007-2.999v-7.002c0-1.657 1.346-2.999 3.007-2.999zM7.995 11c-1.102 0-1.995 0.9-1.995 1.992v7.016c0 1.1 0.902 1.992 1.995 1.992h17.011c1.102 0 1.995-0.9 1.995-1.992v-7.016c0-1.1-0.902-1.992-1.995-1.992h-17.011zM16.005 13h0.99c1.111 0 2.005 0.898 2.005 2.006v2.988c0 1.119-0.898 2.006-2.005 2.006h-0.99c-1.111 0-2.005-0.898-2.005-2.006v-2.988c0-1.119 0.898-2.006 2.005-2.006zM15.999 14c-0.552 0-0.999 0.444-0.999 1v3c0 0.552 0.443 1 0.999 1h1.002c0.552 0 0.999-0.444 0.999-1v-3c0-0.552-0.443-1-0.999-1h-1.002zM10.5 16l-1.5-3h-1v7h1v-5l1 2h1l1-2v5h1v-7h-1l-1.5 3zM22.5 18.25l1.5-5.25h1l-2 7h-1l-2-7h1l1.5 5.25z"></path>
    </symbol>
    <symbol id="icon-file-mov1" viewBox="0 0 32 32">
      <path d="M8.007 10h16.986c1.671 0 3.007 1.343 3.007 2.999v7.002c0 1.657-1.346 2.999-3.007 2.999h-16.986c-1.671 0-3.007-1.343-3.007-2.999v-7.002c0-1.657 1.346-2.999 3.007-2.999zM16.005 13c-1.107 0-2.005 0.887-2.005 2.006v2.988c0 1.108 0.894 2.006 2.005 2.006h0.99c1.107 0 2.005-0.887 2.005-2.006v-2.988c0-1.108-0.894-2.006-2.005-2.006h-0.99zM15.999 14c-0.552 0-0.999 0.444-0.999 1v3c0 0.552 0.443 1 0.999 1h1.002c0.552 0 0.999-0.444 0.999-1v-3c0-0.552-0.443-1-0.999-1h-1.002zM10.5 16l-1.5-3h-1v7h1v-5l1 2h1l1-2v5h1v-7h-1l-1.5 3zM22.5 18.25l-1.5-5.25h-1l2 7h1l2-7h-1l-1.5 5.25z"></path>
    </symbol>
    <symbol id="icon-file-mid" viewBox="0 0 32 32">
      <path d="M8.007 10h16.986c1.671 0 3.007 1.343 3.007 2.999v7.002c0 1.657-1.346 2.999-3.007 2.999h-16.986c-1.671 0-3.007-1.343-3.007-2.999v-7.002c0-1.657 1.346-2.999 3.007-2.999zM7.995 11c-1.102 0-1.995 0.9-1.995 1.992v7.016c0 1.1 0.902 1.992 1.995 1.992h17.011c1.102 0 1.995-0.9 1.995-1.992v-7.016c0-1.1-0.902-1.992-1.995-1.992h-17.011zM11.5 16l-1.5-3h-1v7h1v-5l1 2h1l1-2v5h1v-7h-1l-1.5 3zM16 14v5h-1v1h3v-1h-1v-5h1v-1h-3v1h1zM19 13h2.995c1.111 0 2.005 0.898 2.005 2.006v2.988c0 1.119-0.898 2.006-2.005 2.006h-2.995v-7zM20 14v5h2.001c0.552 0 0.999-0.444 0.999-1v-3c0-0.552-0.443-1-0.999-1h-2.001z"></path>
    </symbol>
    <symbol id="icon-file-mid1" viewBox="0 0 32 32">
      <path d="M8.007 10h16.986c1.671 0 3.007 1.343 3.007 2.999v7.002c0 1.657-1.346 2.999-3.007 2.999h-16.986c-1.671 0-3.007-1.343-3.007-2.999v-7.002c0-1.657 1.346-2.999 3.007-2.999zM11.5 16l-1.5-3h-1v7h1v-5l1 2h1l1-2v5h1v-7h-1l-1.5 3zM16 14v5h-1v1h3v-1h-1v-5h1v-1h-3v1h1zM19 13v7h2.995c1.107 0 2.005-0.887 2.005-2.006v-2.988c0-1.108-0.894-2.006-2.005-2.006h-2.995zM20 14v5h2.001c0.552 0 0.999-0.444 0.999-1v-3c0-0.552-0.443-1-0.999-1h-2.001z"></path>
    </symbol>
    <symbol id="icon-file-aiff" viewBox="0 0 32 32">
      <path d="M5.993 10h21.015c1.654 0 2.993 1.343 2.993 2.999v7.002c0 1.657-1.34 2.999-2.993 2.999h-21.015c-1.654 0-2.993-1.343-2.993-2.999v-7.002c0-1.657 1.34-2.999 2.993-2.999zM6.004 11c-1.107 0-2.004 0.9-2.004 1.992v7.016c0 1.1 0.89 1.992 2.004 1.992h20.993c1.107 0 2.004-0.9 2.004-1.992v-7.016c0-1.1-0.89-1.992-2.004-1.992h-20.993zM10 17h-3v3h-1v-5c0-1.112 0.898-2 2.005-2h0.99c1.111 0 2.005 0.895 2.005 2v5h-1v-3zM7.999 14c-0.552 0-0.999 0.444-0.999 1v1h3v-1c0-0.552-0.443-1-0.999-1h-1.002zM13 14v5h-1v1h3v-1h-1v-5h1v-1h-3v1h1zM17 16v-2h4v-1h-5v7h1v-3h3v-1h-3zM23 16v-2h4v-1h-5v7h1v-3h3v-1h-3z"></path>
    </symbol>
    <symbol id="icon-file-aiff1" viewBox="0 0 32 32">
      <path d="M5.993 10h21.015c1.654 0 2.993 1.343 2.993 2.999v7.002c0 1.657-1.34 2.999-2.993 2.999h-21.015c-1.654 0-2.993-1.343-2.993-2.999v-7.002c0-1.657 1.34-2.999 2.993-2.999zM10 17v3h1v-5c0-1.105-0.894-2-2.005-2h-0.99c-1.107 0-2.005 0.888-2.005 2v5h1v-3h3zM7.999 14c-0.552 0-0.999 0.444-0.999 1v1h3v-1c0-0.552-0.443-1-0.999-1h-1.002zM13 14v5h-1v1h3v-1h-1v-5h1v-1h-3v1h1zM17 16v-2h4v-1h-5v7h1v-3h3v-1h-3zM23 16v-2h4v-1h-5v7h1v-3h3v-1h-3z"></path>
    </symbol>
    <symbol id="icon-file-aac" viewBox="0 0 32 32">
      <path d="M8.007 10h16.986c1.671 0 3.007 1.343 3.007 2.999v7.002c0 1.657-1.346 2.999-3.007 2.999h-16.986c-1.671 0-3.007-1.343-3.007-2.999v-7.002c0-1.657 1.346-2.999 3.007-2.999zM7.995 11c-1.102 0-1.995 0.9-1.995 1.992v7.016c0 1.1 0.902 1.992 1.995 1.992h17.011c1.102 0 1.995-0.9 1.995-1.992v-7.016c0-1.1-0.902-1.992-1.995-1.992h-17.011zM12 17h-3v3h-1v-5c0-1.112 0.898-2 2.005-2h0.99c1.111 0 2.005 0.895 2.005 2v5h-1v-3zM9.999 14c-0.552 0-0.999 0.444-0.999 1v1h3v-1c0-0.552-0.443-1-0.999-1h-1.002zM18 17h-3v3h-1v-5c0-1.112 0.898-2 2.005-2h0.99c1.111 0 2.005 0.895 2.005 2v5h-1v-3zM15.999 14c-0.552 0-0.999 0.444-0.999 1v1h3v-1c0-0.552-0.443-1-0.999-1h-1.002zM25 18c-0.003 1.117-0.9 2-2.005 2h-0.99c-1.111 0-2.005-0.898-2.005-2.006v-2.988c0-1.119 0.898-2.006 2.005-2.006h0.99c1.109 0 2.002 0.895 2.005 2h-1c0-0.552-0.443-1-0.999-1h-1.002c-0.552 0-0.999 0.444-0.999 1v3c0 0.552 0.443 1 0.999 1h1.002c0.552 0 0.999-0.444 0.999-1l1-0z"></path>
    </symbol>
    <symbol id="icon-file-aac1" viewBox="0 0 32 32">
      <path d="M8.007 10c-1.661 0-3.007 1.342-3.007 2.999v7.002c0 1.656 1.336 2.999 3.007 2.999h16.986c1.661 0 3.007-1.342 3.007-2.999v-7.002c0-1.656-1.336-2.999-3.007-2.999h-16.986zM12 17h-3v3h-1v-5c0-1.112 0.898-2 2.005-2h0.99c1.111 0 2.005 0.895 2.005 2v5h-1v-3zM9.999 14c-0.552 0-0.999 0.444-0.999 1v1h3v-1c0-0.552-0.443-1-0.999-1h-1.002zM18 17h-3v3h-1v-5c0-1.112 0.898-2 2.005-2h0.99c1.111 0 2.005 0.895 2.005 2v5h-1v-3zM15.999 14c-0.552 0-0.999 0.444-0.999 1v1h3v-1c0-0.552-0.443-1-0.999-1h-1.002zM25 18c-0.003 1.117-0.9 2-2.005 2h-0.99c-1.111 0-2.005-0.898-2.005-2.006v-2.988c0-1.119 0.898-2.006 2.005-2.006h0.99c1.109 0 2.002 0.895 2.005 2h-1c0-0.552-0.443-1-0.999-1h-1.002c-0.552 0-0.999 0.444-0.999 1v3c0 0.552 0.443 1 0.999 1h1.002c0.552 0 0.999-0.444 0.999-1l1-0z"></path>
    </symbol>
    <symbol id="icon-file-wav" viewBox="0 0 32 32">
      <path d="M8.007 10h16.986c1.671 0 3.007 1.343 3.007 2.999v7.002c0 1.657-1.346 2.999-3.007 2.999h-16.986c-1.671 0-3.007-1.343-3.007-2.999v-7.002c0-1.657 1.346-2.999 3.007-2.999zM7.995 11c-1.102 0-1.995 0.9-1.995 1.992v7.016c0 1.1 0.902 1.992 1.995 1.992h17.011c1.102 0 1.995-0.9 1.995-1.992v-7.016c0-1.1-0.902-1.992-1.995-1.992h-17.011zM12.5 20h-0.5l-1.5-3-1.5 3h-1v-7h1v5l1-2h1l1 2v-5h1v7h-0.5zM18 17h-3v3h-1v-5c0-1.112 0.898-2 2.005-2h0.99c1.111 0 2.005 0.895 2.005 2v5h-1v-3zM15.999 14c-0.552 0-0.999 0.444-0.999 1v1h3v-1c0-0.552-0.443-1-0.999-1h-1.002zM22.5 18.25l1.5-5.25h1l-2 7h-1l-2-7h1l1.5 5.25z"></path>
    </symbol>
    <symbol id="icon-file-wav1" viewBox="0 0 32 32">
      <path d="M8.007 10c-1.661 0-3.007 1.342-3.007 2.999v7.002c0 1.656 1.336 2.999 3.007 2.999h16.986c1.661 0 3.007-1.342 3.007-2.999v-7.002c0-1.656-1.336-2.999-3.007-2.999h-16.986zM12.5 20h-0.5l-1.5-3-1.5 3h-1v-7h1v5l1-2h1l1 2v-5h1v7h-0.5zM18 17h-3v3h-1v-5c0-1.112 0.898-2 2.005-2h0.99c1.111 0 2.005 0.895 2.005 2v5h-1v-3zM15.999 14c-0.552 0-0.999 0.444-0.999 1v1h3v-1c0-0.552-0.443-1-0.999-1h-1.002zM22.5 18.25l1.5-5.25h1l-2 7h-1l-2-7h1l1.5 5.25z"></path>
    </symbol>
    <symbol id="icon-file-mp32" viewBox="0 0 32 32">
      <path d="M8.007 10h16.986c1.671 0 3.007 1.343 3.007 2.999v7.002c0 1.657-1.346 2.999-3.007 2.999h-16.986c-1.671 0-3.007-1.343-3.007-2.999v-7.002c0-1.657 1.346-2.999 3.007-2.999zM10.5 16l-1.5-3h-1v7h1v-5l1 2h1l1-2v5h1v-7h-1l-1.5 3zM20 15h1c0-0.556 0.447-1 0.999-1h1.002c0.556 0 0.999 0.448 0.999 1 0 0.556-0.447 1-0.999 1h-1.001v1h1.001c0.556 0 0.999 0.448 0.999 1 0 0.556-0.447 1-0.999 1h-1.002c-0.556 0-0.999-0.448-0.999-1h-1c0 1.105 0.894 2 2.005 2h0.99c1.107 0 2.005-0.888 2.005-2 0-0.597-0.261-1.133-0.677-1.499 0.415-0.365 0.677-0.9 0.677-1.501 0-1.105-0.894-2-2.005-2h-0.99c-1.107 0-2.005 0.888-2.005 2zM14 15v5h1v-3h1.995c1.107 0 2.005-0.888 2.005-2 0-1.105-0.894-2-2.005-2h-2.995v2zM15 14v2h2.001c0.552 0 0.999-0.444 0.999-1 0-0.552-0.443-1-0.999-1h-2.001z"></path>
    </symbol>
    <symbol id="icon-file-mp33" viewBox="0 0 32 32">
      <path d="M8.007 10h16.986c1.671 0 3.007 1.343 3.007 2.999v7.002c0 1.657-1.346 2.999-3.007 2.999h-16.986c-1.671 0-3.007-1.343-3.007-2.999v-7.002c0-1.657 1.346-2.999 3.007-2.999zM7.995 11c-1.102 0-1.995 0.9-1.995 1.992v7.016c0 1.1 0.902 1.992 1.995 1.992h17.011c1.102 0 1.995-0.9 1.995-1.992v-7.016c0-1.1-0.902-1.992-1.995-1.992h-17.011zM10.5 16l-1.5-3h-1v7h1v-5l1 2h1l1-2v5h1v-7h-1l-1.5 3zM20 15c0-1.112 0.898-2 2.005-2h0.99c1.111 0 2.005 0.895 2.005 2 0 0.6-0.262 1.135-0.677 1.501 0.415 0.366 0.677 0.902 0.677 1.499 0 1.112-0.898 2-2.005 2h-0.99c-1.111 0-2.005-0.895-2.005-2h1c0 0.552 0.443 1 0.999 1h1.002c0.552 0 0.999-0.444 0.999-1 0-0.552-0.443-1-0.999-1h-1.001v-1h1.001c0.552 0 0.999-0.444 0.999-1 0-0.552-0.443-1-0.999-1h-1.002c-0.552 0-0.999 0.444-0.999 1h-1zM14 15v-2h2.995c1.111 0 2.005 0.895 2.005 2 0 1.112-0.898 2-2.005 2h-1.995v3h-1v-5zM15 14v2h2.001c0.552 0 0.999-0.444 0.999-1 0-0.552-0.443-1-0.999-1h-2.001z"></path>
    </symbol>
    <symbol id="icon-controller-play" viewBox="0 0 20 20">
      <path d="M15 10.001c0 0.299-0.305 0.514-0.305 0.514l-8.561 5.303c-0.624 0.409-1.134 0.106-1.134-0.669v-10.297c0-0.777 0.51-1.078 1.135-0.67l8.561 5.305c-0.001 0 0.304 0.215 0.304 0.514z"></path>
    </symbol>
    <symbol id="icon-controller-stop" viewBox="0 0 20 20">
      <path d="M16 4.995v9.808c0 0.661-0.536 1.197-1.196 1.197h-9.807c-0.551 0-0.997-0.446-0.997-0.997v-9.807c0-0.66 0.536-1.196 1.196-1.196h9.808c0.55 0 0.996 0.446 0.996 0.995z"></path>
    </symbol>
    <symbol id="icon-dots-three-horizontal" viewBox="0 0 20 20">
      <path d="M10.001 7.8c-1.215 0-2.201 0.985-2.201 2.2s0.986 2.2 2.201 2.2c1.215 0 2.199-0.985 2.199-2.2s-0.984-2.2-2.199-2.2zM3.001 7.8c-1.215 0-2.201 0.985-2.201 2.2s0.986 2.2 2.201 2.2c1.215 0 2.199-0.986 2.199-2.2s-0.984-2.2-2.199-2.2zM17.001 7.8c-1.215 0-2.201 0.985-2.201 2.2s0.986 2.2 2.201 2.2c1.215 0 2.199-0.985 2.199-2.2s-0.984-2.2-2.199-2.2z"></path>
    </symbol>
    <symbol id="icon-dots-three-vertical" viewBox="0 0 20 20">
      <path d="M10.001 7.8c-1.215 0-2.201 0.985-2.201 2.2s0.986 2.2 2.201 2.2c1.215 0 2.199-0.985 2.199-2.2s-0.984-2.2-2.199-2.2zM10.001 5.2c1.215 0 2.199-0.986 2.199-2.2s-0.984-2.2-2.199-2.2c-1.215 0-2.201 0.985-2.201 2.2s0.986 2.2 2.201 2.2zM10.001 14.8c-1.215 0-2.201 0.985-2.201 2.2s0.986 2.2 2.201 2.2c1.215 0 2.199-0.985 2.199-2.2s-0.984-2.2-2.199-2.2z"></path>
    </symbol>
    <symbol id="icon-dots-two-horizontal" viewBox="0 0 20 20">
      <path d="M14.001 7.8c-1.215 0-2.201 0.985-2.201 2.2s0.986 2.2 2.201 2.2c1.215 0 2.199-0.985 2.199-2.2s-0.984-2.2-2.199-2.2zM6.001 7.8c-1.215 0-2.201 0.985-2.201 2.2s0.986 2.2 2.201 2.2c1.215 0 2.199-0.986 2.199-2.2s-0.984-2.2-2.199-2.2z"></path>
    </symbol>
    <symbol id="icon-dots-two-vertical" viewBox="0 0 20 20">
      <path d="M10.001 8.2c1.215 0 2.199-0.986 2.199-2.2s-0.984-2.2-2.199-2.2c-1.215 0-2.201 0.985-2.201 2.2s0.986 2.2 2.201 2.2zM10.001 11.8c-1.215 0-2.201 0.985-2.201 2.2s0.986 2.2 2.201 2.2c1.215 0 2.199-0.985 2.199-2.2s-0.984-2.2-2.199-2.2z"></path>
    </symbol>
    <symbol id="icon-save" viewBox="0 0 20 20">
      <path d="M15.173 2h-11.173c-1.101 0-2 0.9-2 2v12c0 1.1 0.899 2 2 2h12c1.101 0 2-0.9 2-2v-10.873l-2.827-3.127zM14 8c0 0.549-0.45 1-1 1h-6c-0.55 0-1-0.451-1-1v-5h8v5zM13 4h-2v4h2v-4z"></path>
    </symbol>
    <symbol id="icon-clock" viewBox="0 0 20 20">
      <path d="M10 0.4c-5.303 0-9.601 4.298-9.601 9.6 0 5.303 4.298 9.601 9.601 9.601 5.301 0 9.6-4.298 9.6-9.601s-4.299-9.6-9.6-9.6zM9.999 17.6c-4.197 0-7.6-3.402-7.6-7.6 0-4.197 3.402-7.6 7.6-7.6 4.197 0 7.601 3.402 7.601 7.6 0 4.197-3.404 7.6-7.601 7.6zM11 9.33v-5.33h-2v6.245l-3.546 2.048 1 1.732 4.115-2.377c0.238-0.137 0.431-0.473 0.431-0.748v-0.168l4.24-4.166c-0.198-0.271-0.411-0.529-0.647-0.766l-3.593 3.53z"></path>
    </symbol>
    <symbol id="icon-keyboard" viewBox="0 0 20 20">
      <path d="M18.6 4h-17.2c-0.771 0-1.4 0.629-1.4 1.4v9.2c0 0.769 0.629 1.4 1.399 1.4h17.2c0.77 0 1.4-0.631 1.4-1.4v-9.2c0.001-0.771-0.63-1.4-1.399-1.4zM11 6h2v2h-2v-2zM14 9v2h-2v-2h2zM8 6h2v2h-2v-2zM11 9v2h-2v-2h2zM5 6h2v2h-2v-2zM8 9v2h-2v-2h2zM2 6h2v2h-2v-2zM5 9v2h-2v-2h2zM4 14h-2v-2h2v2zM15 14h-10v-2h10v2zM18 14h-2v-2h2v2zM15 11v-2h2v2h-2zM18 8h-4v-2h4v2z"></path>
    </symbol>
    <symbol id="icon-mic" viewBox="0 0 20 20">
      <path d="M16.399 7.643v2.757c0 2.236-1.643 4.629-5.399 4.959v2.641h2.6c0.22 0 0.4 0.18 0.4 0.4v1.2c0 0.221-0.181 0.4-0.4 0.4h-7.2c-0.22 0-0.4-0.18-0.4-0.4v-1.2c0-0.22 0.18-0.4 0.399-0.4h2.601v-2.641c-3.758-0.33-5.4-2.723-5.4-4.959v-2.757c0-0.221 0.18-0.4 0.4-0.4h0.6c0.22 0 0.4 0.18 0.4 0.4v2.757c0 1.336 1.053 3.6 5 3.6s5-2.264 5-3.6v-2.757c0-0.221 0.18-0.4 0.399-0.4h0.601c0.22-0.001 0.399 0.179 0.399 0.4zM10 12c2.346 0 3-0.965 3-1.6v-3.158h-6v3.158c0 0.635 0.652 1.6 3 1.6zM13 1.6c0-0.637-0.654-1.6-3-1.6-2.348 0-3 0.963-3 1.6v4.242h6v-4.242z"></path>
    </symbol>
    <symbol id="icon-stopwatch" viewBox="0 0 20 20">
      <path d="M7.376 6.745c-0.447 0.275 1.197 4.242 1.598 4.888 0.35 0.569 1.093 0.742 1.658 0.394 0.568-0.352 0.745-1.094 0.395-1.66-0.397-0.648-3.205-3.898-3.651-3.622zM7.041 2.402c0.928-0.323 1.922-0.502 2.959-0.502s2.031 0.179 2.959 0.502c0.329 0.114 0.765-0.115 0.572-0.611-0.141-0.36-0.277-0.712-0.332-0.855-0.131-0.339-0.6-0.619-0.804-0.665-0.772-0.174-1.572-0.271-2.395-0.271s-1.623 0.097-2.396 0.271c-0.204 0.046-0.672 0.326-0.803 0.665-0.055 0.143-0.192 0.495-0.332 0.855-0.193 0.496 0.243 0.726 0.572 0.611zM19.098 3.186c-0.192-0.23-0.396-0.455-0.613-0.672-0.216-0.217-0.441-0.42-0.67-0.613-0.153-0.129-0.603-0.234-0.888 0.051s-1.648 1.647-1.648 1.647c0.402 0.288 0.793 0.605 1.155 0.966s0.677 0.752 0.966 1.155c0 0 1.363-1.362 1.647-1.647 0.286-0.286 0.181-0.735 0.051-0.887zM10 2.9c-4.475 0-8.101 3.626-8.101 8.1s3.626 8.101 8.101 8.101c4.473 0 8.1-3.626 8.1-8.101 0-4.473-3.627-8.1-8.1-8.1zM10 17.101c-3.368 0-6.1-2.731-6.1-6.1s2.731-6.1 6.1-6.1c3.369 0 6.101 2.731 6.101 6.1s-2.732 6.1-6.101 6.1z"></path>
    </symbol>
    <symbol id="icon-power-off" viewBox="0 0 24 28">
      <path d="M24 14c0 6.609-5.391 12-12 12s-12-5.391-12-12c0-3.797 1.75-7.297 4.797-9.578 0.891-0.672 2.141-0.5 2.797 0.391 0.672 0.875 0.484 2.141-0.391 2.797-2.031 1.531-3.203 3.859-3.203 6.391 0 4.406 3.594 8 8 8s8-3.594 8-8c0-2.531-1.172-4.859-3.203-6.391-0.875-0.656-1.062-1.922-0.391-2.797 0.656-0.891 1.922-1.062 2.797-0.391 3.047 2.281 4.797 5.781 4.797 9.578zM14 2v10c0 1.094-0.906 2-2 2s-2-0.906-2-2v-10c0-1.094 0.906-2 2-2s2 0.906 2 2z"></path>
    </symbol>
    <symbol id="icon-keyboard-o" viewBox="0 0 30 28">
      <path d="M6 18.25v1.5c0 0.141-0.109 0.25-0.25 0.25h-1.5c-0.141 0-0.25-0.109-0.25-0.25v-1.5c0-0.141 0.109-0.25 0.25-0.25h1.5c0.141 0 0.25 0.109 0.25 0.25zM8 14.25v1.5c0 0.141-0.109 0.25-0.25 0.25h-3.5c-0.141 0-0.25-0.109-0.25-0.25v-1.5c0-0.141 0.109-0.25 0.25-0.25h3.5c0.141 0 0.25 0.109 0.25 0.25zM6 10.25v1.5c0 0.141-0.109 0.25-0.25 0.25h-1.5c-0.141 0-0.25-0.109-0.25-0.25v-1.5c0-0.141 0.109-0.25 0.25-0.25h1.5c0.141 0 0.25 0.109 0.25 0.25zM22 18.25v1.5c0 0.141-0.109 0.25-0.25 0.25h-13.5c-0.141 0-0.25-0.109-0.25-0.25v-1.5c0-0.141 0.109-0.25 0.25-0.25h13.5c0.141 0 0.25 0.109 0.25 0.25zM12 14.25v1.5c0 0.141-0.109 0.25-0.25 0.25h-1.5c-0.141 0-0.25-0.109-0.25-0.25v-1.5c0-0.141 0.109-0.25 0.25-0.25h1.5c0.141 0 0.25 0.109 0.25 0.25zM10 10.25v1.5c0 0.141-0.109 0.25-0.25 0.25h-1.5c-0.141 0-0.25-0.109-0.25-0.25v-1.5c0-0.141 0.109-0.25 0.25-0.25h1.5c0.141 0 0.25 0.109 0.25 0.25zM16 14.25v1.5c0 0.141-0.109 0.25-0.25 0.25h-1.5c-0.141 0-0.25-0.109-0.25-0.25v-1.5c0-0.141 0.109-0.25 0.25-0.25h1.5c0.141 0 0.25 0.109 0.25 0.25zM14 10.25v1.5c0 0.141-0.109 0.25-0.25 0.25h-1.5c-0.141 0-0.25-0.109-0.25-0.25v-1.5c0-0.141 0.109-0.25 0.25-0.25h1.5c0.141 0 0.25 0.109 0.25 0.25zM20 14.25v1.5c0 0.141-0.109 0.25-0.25 0.25h-1.5c-0.141 0-0.25-0.109-0.25-0.25v-1.5c0-0.141 0.109-0.25 0.25-0.25h1.5c0.141 0 0.25 0.109 0.25 0.25zM26 18.25v1.5c0 0.141-0.109 0.25-0.25 0.25h-1.5c-0.141 0-0.25-0.109-0.25-0.25v-1.5c0-0.141 0.109-0.25 0.25-0.25h1.5c0.141 0 0.25 0.109 0.25 0.25zM18 10.25v1.5c0 0.141-0.109 0.25-0.25 0.25h-1.5c-0.141 0-0.25-0.109-0.25-0.25v-1.5c0-0.141 0.109-0.25 0.25-0.25h1.5c0.141 0 0.25 0.109 0.25 0.25zM22 10.25v1.5c0 0.141-0.109 0.25-0.25 0.25h-1.5c-0.141 0-0.25-0.109-0.25-0.25v-1.5c0-0.141 0.109-0.25 0.25-0.25h1.5c0.141 0 0.25 0.109 0.25 0.25zM26 10.25v5.5c0 0.141-0.109 0.25-0.25 0.25h-3.5c-0.141 0-0.25-0.109-0.25-0.25v-1.5c0-0.141 0.109-0.25 0.25-0.25h1.75v-3.75c0-0.141 0.109-0.25 0.25-0.25h1.5c0.141 0 0.25 0.109 0.25 0.25zM28 22v-14h-26v14h26zM30 8v14c0 1.109-0.891 2-2 2h-26c-1.109 0-2-0.891-2-2v-14c0-1.109 0.891-2 2-2h26c1.109 0 2 0.891 2 2z"></path>
    </symbol>
    <symbol id="icon-mouse-pointer" viewBox="0 0 18 28">
      <path d="M17.703 16.297c0.297 0.281 0.375 0.719 0.219 1.078-0.156 0.375-0.516 0.625-0.922 0.625h-5.969l3.141 7.438c0.219 0.516-0.031 1.094-0.531 1.313l-2.766 1.172c-0.516 0.219-1.094-0.031-1.313-0.531l-2.984-7.063-4.875 4.875c-0.187 0.187-0.438 0.297-0.703 0.297-0.125 0-0.266-0.031-0.375-0.078-0.375-0.156-0.625-0.516-0.625-0.922v-23.5c0-0.406 0.25-0.766 0.625-0.922 0.109-0.047 0.25-0.078 0.375-0.078 0.266 0 0.516 0.094 0.703 0.297z"></path>
    </symbol>
    <symbol id="icon-i-cursor" viewBox="0 0 14 28">
      <path d="M13 2c-3.313 0-5 1.172-5 3.5v6.5h2v2h-2v8.5c0 2.328 1.687 3.5 5 3.5h1v2h-1c-2.812 0-4.875-0.812-6-2.281-1.125 1.469-3.187 2.281-6 2.281h-1v-2h1c3.313 0 5-1.172 5-3.5v-8.5h-2v-2h2v-6.5c0-2.328-1.687-3.5-5-3.5h-1v-2h1c2.812 0 4.875 0.812 6 2.281 1.125-1.469 3.187-2.281 6-2.281h1v2h-1z"></path>
    </symbol>
    <symbol id="icon-error" viewBox="0 0 24 24">
      <path d="M12.984 12.984v-6h-1.969v6h1.969zM12.984 17.016v-2.016h-1.969v2.016h1.969zM12 2.016q4.125 0 7.055 2.93t2.93 7.055-2.93 7.055-7.055 2.93-7.055-2.93-2.93-7.055 2.93-7.055 7.055-2.93z"></path>
    </symbol>
    <symbol id="icon-error_outline" viewBox="0 0 24 24">
      <path d="M12 20.016q3.281 0 5.648-2.367t2.367-5.648-2.367-5.648-5.648-2.367-5.648 2.367-2.367 5.648 2.367 5.648 5.648 2.367zM12 2.016q4.125 0 7.055 2.93t2.93 7.055-2.93 7.055-7.055 2.93-7.055-2.93-2.93-7.055 2.93-7.055 7.055-2.93zM11.016 6.984h1.969v6h-1.969v-6zM11.016 15h1.969v2.016h-1.969v-2.016z"></path>
    </symbol>
    <symbol id="icon-warning" viewBox="0 0 24 24">
      <path d="M12.984 14.016v-4.031h-1.969v4.031h1.969zM12.984 18v-2.016h-1.969v2.016h1.969zM0.984 21l11.016-18.984 11.016 18.984h-22.031z"></path>
    </symbol>
    <symbol id="icon-av_timer" viewBox="0 0 24 24">
      <path d="M6 12q0-0.422 0.281-0.703t0.703-0.281 0.727 0.281 0.305 0.703-0.305 0.703-0.727 0.281-0.703-0.281-0.281-0.703zM18 12q0 0.422-0.281 0.703t-0.703 0.281-0.727-0.281-0.305-0.703 0.305-0.703 0.727-0.281 0.703 0.281 0.281 0.703zM11.016 3h0.984q3.75 0 6.375 2.625t2.625 6.375-2.625 6.375-6.375 2.625-6.375-2.625-2.625-6.375q0-4.5 3.609-7.172v-0.047l6.797 6.797-1.406 1.406-5.438-5.391q-1.547 1.922-1.547 4.406 0 2.906 2.039 4.945t4.945 2.039 4.945-2.039 2.039-4.945q0-2.625-1.734-4.594t-4.266-2.344v1.922h-1.969v-3.984zM11.016 17.016q0-0.422 0.281-0.727t0.703-0.305 0.703 0.305 0.281 0.727-0.281 0.703-0.703 0.281-0.703-0.281-0.281-0.703z"></path>
    </symbol>
    <symbol id="icon-fast_forward" viewBox="0 0 24 24">
      <path d="M12.984 6l8.531 6-8.531 6v-12zM3.984 18v-12l8.531 6z"></path>
    </symbol>
    <symbol id="icon-fast_rewind" viewBox="0 0 24 24">
      <path d="M11.484 12l8.531-6v12zM11.016 18l-8.531-6 8.531-6v12z"></path>
    </symbol>
    <symbol id="icon-games" viewBox="0 0 24 24">
      <path d="M16.5 9h5.484v6h-5.484l-3-3zM9 16.5l3-3 3 3v5.484h-6v-5.484zM7.5 9l3 3-3 3h-5.484v-6h5.484zM15 7.5l-3 3-3-3v-5.484h6v5.484z"></path>
    </symbol>
    <symbol id="icon-hearing" viewBox="0 0 24 24">
      <path d="M11.484 9q0-1.031 0.75-1.758t1.781-0.727 1.758 0.727 0.727 1.758-0.727 1.758-1.758 0.727-1.781-0.727-0.75-1.758zM7.641 2.625q-2.625 2.625-2.625 6.375t2.625 6.375l-1.406 1.406q-3.234-3.234-3.234-7.781t3.234-7.781zM17.016 20.016q0.797 0 1.383-0.609t0.586-1.406h2.016q0 1.641-1.172 2.813t-2.813 1.172q-0.891 0-1.641-0.328-1.922-0.984-2.766-3.563-0.328-1.031-1.688-2.063-1.922-1.406-2.859-3.141-1.078-1.922-1.078-3.891 0-2.953 2.039-4.969t4.992-2.016 4.969 2.016 2.016 4.969h-2.016q0-2.109-1.43-3.563t-3.539-1.453-3.563 1.453-1.453 3.563q0 1.5 0.797 2.953 0.656 1.266 2.344 2.531 1.875 1.406 2.391 3 0.609 1.781 1.688 2.344 0.375 0.188 0.797 0.188z"></path>
    </symbol>
    <symbol id="icon-loop" viewBox="0 0 24 24">
      <path d="M12 18v-3l3.984 3.984-3.984 4.031v-3q-3.281 0-5.648-2.367t-2.367-5.648q0-2.344 1.266-4.266l1.453 1.453q-0.703 1.266-0.703 2.813 0 2.484 1.758 4.242t4.242 1.758zM12 3.984q3.281 0 5.648 2.367t2.367 5.648q0 2.344-1.266 4.266l-1.453-1.453q0.703-1.266 0.703-2.813 0-2.484-1.758-4.242t-4.242-1.758v3l-3.984-3.984 3.984-4.031v3z"></path>
    </symbol>
    <symbol id="icon-mic1" viewBox="0 0 24 24">
      <path d="M17.297 11.016h1.688q0 2.531-1.758 4.43t-4.242 2.273v3.281h-1.969v-3.281q-2.484-0.375-4.242-2.273t-1.758-4.43h1.688q0 2.203 1.57 3.633t3.727 1.43 3.727-1.43 1.57-3.633zM12 14.016q-1.219 0-2.109-0.891t-0.891-2.109v-6q0-1.219 0.891-2.109t2.109-0.891 2.109 0.891 0.891 2.109v6q0 1.219-0.891 2.109t-2.109 0.891z"></path>
    </symbol>
    <symbol id="icon-mic_none" viewBox="0 0 24 24">
      <path d="M17.297 11.016h1.688q0 2.531-1.758 4.43t-4.242 2.273v3.281h-1.969v-3.281q-2.484-0.375-4.242-2.273t-1.758-4.43h1.688q0 2.203 1.57 3.633t3.727 1.43 3.727-1.43 1.57-3.633zM10.781 4.922v6.188q0 0.469 0.352 0.82t0.867 0.352q0.469 0 0.82-0.328t0.352-0.844l0.047-6.188q0-0.516-0.375-0.867t-0.844-0.352-0.844 0.352-0.375 0.867zM12 14.016q-1.219 0-2.109-0.891t-0.891-2.109v-6q0-1.219 0.891-2.109t2.109-0.891 2.109 0.891 0.891 2.109v6q0 1.219-0.891 2.109t-2.109 0.891z"></path>
    </symbol>
    <symbol id="icon-mic_off" viewBox="0 0 24 24">
      <path d="M4.266 3l16.734 16.734-1.266 1.266-4.172-4.172q-1.031 0.656-2.578 0.891v3.281h-1.969v-3.281q-2.484-0.375-4.242-2.273t-1.758-4.43h1.688q0 2.203 1.57 3.633t3.727 1.43q1.172 0 2.297-0.516l-1.641-1.641q-0.375 0.094-0.656 0.094-1.219 0-2.109-0.891t-0.891-2.109v-0.75l-6-6zM15 11.156l-6-5.953v-0.188q0-1.219 0.891-2.109t2.109-0.891 2.109 0.891 0.891 2.109v6.141zM18.984 11.016q0 1.734-0.891 3.281l-1.219-1.266q0.422-0.938 0.422-2.016h1.688z"></path>
    </symbol>
    <symbol id="icon-library_music" viewBox="0 0 24 24">
      <path d="M3.984 6v14.016h14.016v1.969h-14.016q-0.797 0-1.383-0.586t-0.586-1.383v-14.016h1.969zM18 6.984v-1.969h-3.984v5.484q-0.656-0.516-1.5-0.516-1.031 0-1.781 0.75t-0.75 1.781 0.75 1.758 1.781 0.727 1.758-0.727 0.727-1.758v-5.531h3zM20.016 2.016q0.797 0 1.383 0.586t0.586 1.383v12q0 0.797-0.586 1.406t-1.383 0.609h-12q-0.797 0-1.406-0.609t-0.609-1.406v-12q0-0.797 0.609-1.383t1.406-0.586h12z"></path>
    </symbol>
    <symbol id="icon-not_interested" viewBox="0 0 24 24">
      <path d="M18.328 16.922q1.688-2.109 1.688-4.922 0-3.281-2.367-5.648t-5.648-2.367q-1.125 0-2.578 0.492t-2.344 1.195zM12 20.016q1.125 0 2.578-0.492t2.344-1.195l-11.25-11.25q-1.688 2.109-1.688 4.922 0 3.281 2.367 5.648t5.648 2.367zM12 2.016q4.125 0 7.055 2.93t2.93 7.055-2.93 7.055-7.055 2.93-7.055-2.93-2.93-7.055 2.93-7.055 7.055-2.93z"></path>
    </symbol>
    <symbol id="icon-pause" viewBox="0 0 24 24">
      <path d="M14.016 5.016h3.984v13.969h-3.984v-13.969zM6 18.984v-13.969h3.984v13.969h-3.984z"></path>
    </symbol>
    <symbol id="icon-pause_circle_filled" viewBox="0 0 24 24">
      <path d="M15 15.984v-7.969h-2.016v7.969h2.016zM11.016 15.984v-7.969h-2.016v7.969h2.016zM12 2.016q4.125 0 7.055 2.93t2.93 7.055-2.93 7.055-7.055 2.93-7.055-2.93-2.93-7.055 2.93-7.055 7.055-2.93z"></path>
    </symbol>
    <symbol id="icon-pause_circle_outline" viewBox="0 0 24 24">
      <path d="M12.984 15.984v-7.969h2.016v7.969h-2.016zM12 20.016q3.281 0 5.648-2.367t2.367-5.648-2.367-5.648-5.648-2.367-5.648 2.367-2.367 5.648 2.367 5.648 5.648 2.367zM12 2.016q4.125 0 7.055 2.93t2.93 7.055-2.93 7.055-7.055 2.93-7.055-2.93-2.93-7.055 2.93-7.055 7.055-2.93zM9 15.984v-7.969h2.016v7.969h-2.016z"></path>
    </symbol>
    <symbol id="icon-play_arrow" viewBox="0 0 24 24">
      <path d="M8.016 5.016l10.969 6.984-10.969 6.984v-13.969z"></path>
    </symbol>
    <symbol id="icon-play_circle_filled" viewBox="0 0 24 24">
      <path d="M9.984 16.5l6-4.5-6-4.5v9zM12 2.016q4.125 0 7.055 2.93t2.93 7.055-2.93 7.055-7.055 2.93-7.055-2.93-2.93-7.055 2.93-7.055 7.055-2.93z"></path>
    </symbol>
    <symbol id="icon-play_circle_outline" viewBox="0 0 24 24">
      <path d="M12 20.016q3.281 0 5.648-2.367t2.367-5.648-2.367-5.648-5.648-2.367-5.648 2.367-2.367 5.648 2.367 5.648 5.648 2.367zM12 2.016q4.125 0 7.055 2.93t2.93 7.055-2.93 7.055-7.055 2.93-7.055-2.93-2.93-7.055 2.93-7.055 7.055-2.93zM9.984 16.5v-9l6 4.5z"></path>
    </symbol>
    <symbol id="icon-playlist_add" viewBox="0 0 24 24">
      <path d="M2.016 15.984v-1.969h7.969v1.969h-7.969zM18 14.016h3.984v1.969h-3.984v4.031h-2.016v-4.031h-3.984v-1.969h3.984v-4.031h2.016v4.031zM14.016 6v2.016h-12v-2.016h12zM14.016 9.984v2.016h-12v-2.016h12z"></path>
    </symbol>
    <symbol id="icon-queue_music" viewBox="0 0 24 24">
      <path d="M17.016 6h4.969v2.016h-3v9q0 1.219-0.891 2.109t-2.109 0.891-2.109-0.891-0.891-2.109 0.891-2.109 2.109-0.891q0.375 0 1.031 0.188v-8.203zM3 15.984v-1.969h8.016v1.969h-8.016zM15 9.984v2.016h-12v-2.016h12zM15 6v2.016h-12v-2.016h12z"></path>
    </symbol>
    <symbol id="icon-radio" viewBox="0 0 24 24">
      <path d="M20.016 12v-3.984h-16.031v3.984h12v-2.016h2.016v2.016h2.016zM6.984 20.016q1.219 0 2.109-0.891t0.891-2.109-0.891-2.109-2.109-0.891-2.109 0.891-0.891 2.109 0.891 2.109 2.109 0.891zM3.234 6.141l12.656-5.156 0.656 1.688-8.25 3.328h11.719q0.844 0 1.406 0.586t0.563 1.43v12q0 0.844-0.563 1.406t-1.406 0.563h-16.031q-0.844 0-1.406-0.563t-0.563-1.406v-12q0-1.406 1.219-1.875z"></path>
    </symbol>
    <symbol id="icon-replay" viewBox="0 0 24 24">
      <path d="M12 5.016q3.328 0 5.672 2.344t2.344 5.625q0 3.328-2.367 5.672t-5.648 2.344-5.648-2.344-2.367-5.672h2.016q0 2.484 1.758 4.242t4.242 1.758 4.242-1.758 1.758-4.242-1.758-4.242-4.242-1.758v4.031l-5.016-5.016 5.016-5.016v4.031z"></path>
    </symbol>
    <symbol id="icon-shuffle" viewBox="0 0 24 24">
      <path d="M14.813 13.406l3.141 3.141 2.063-2.063v5.531h-5.531l2.063-2.063-3.141-3.141zM14.484 3.984h5.531v5.531l-2.063-2.063-12.563 12.563-1.406-1.406 12.563-12.563zM10.594 9.188l-1.406 1.406-5.203-5.203 1.406-1.406z"></path>
    </symbol>
    <symbol id="icon-skip_next" viewBox="0 0 24 24">
      <path d="M15.984 6h2.016v12h-2.016v-12zM6 18v-12l8.484 6z"></path>
    </symbol>
    <symbol id="icon-skip_previous" viewBox="0 0 24 24">
      <path d="M9.516 12l8.484-6v12zM6 6h2.016v12h-2.016v-12z"></path>
    </symbol>
    <symbol id="icon-stop" viewBox="0 0 24 24">
      <path d="M6 6h12v12h-12v-12z"></path>
    </symbol>
    <symbol id="icon-surround_sound" viewBox="0 0 24 24">
      <path d="M12 9.984q0.797 0 1.406 0.609t0.609 1.406-0.609 1.406-1.406 0.609-1.406-0.609-0.609-1.406 0.609-1.406 1.406-0.609zM17.672 17.672q2.344-2.344 2.344-5.672v-0.047q0-1.359-0.68-3.023t-1.664-2.602l-1.453 1.453q1.781 1.781 1.781 4.219 0 2.531-1.734 4.266zM12 15.984q1.641 0 2.813-1.172t1.172-2.813-1.172-2.813-2.813-1.172-2.813 1.172-1.172 2.813 1.172 2.813 2.813 1.172zM7.781 16.219q-1.781-1.781-1.781-4.219 0-2.531 1.734-4.266l-1.406-1.406q-2.344 2.344-2.344 5.672v0.047q0 1.359 0.68 3.023t1.664 2.602zM20.016 3.984q0.797 0 1.383 0.609t0.586 1.406v12q0 0.797-0.586 1.406t-1.383 0.609h-16.031q-0.797 0-1.383-0.609t-0.586-1.406v-12q0-0.797 0.586-1.406t1.383-0.609h16.031z"></path>
    </symbol>
    <symbol id="icon-volume_down" viewBox="0 0 24 24">
      <path d="M5.016 9h3.984l5.016-5.016v16.031l-5.016-5.016h-3.984v-6zM18.516 12q0 2.766-2.531 4.031v-8.063q1.031 0.516 1.781 1.711t0.75 2.32z"></path>
    </symbol>
    <symbol id="icon-volume_mute" viewBox="0 0 24 24">
      <path d="M6.984 9h4.031l4.969-5.016v16.031l-4.969-5.016h-4.031v-6z"></path>
    </symbol>
    <symbol id="icon-volume_off" viewBox="0 0 24 24">
      <path d="M12 3.984v4.219l-2.109-2.109zM4.266 3l16.734 16.734-1.266 1.266-2.063-2.063q-1.547 1.313-3.656 1.828v-2.063q1.172-0.328 2.25-1.172l-4.266-4.266v6.75l-5.016-5.016h-3.984v-6h4.734l-4.734-4.734zM18.984 12q0-2.391-1.383-4.219t-3.586-2.484v-2.063q3.047 0.656 5.016 3.117t1.969 5.648q0 2.203-1.031 4.172l-1.5-1.547q0.516-1.266 0.516-2.625zM16.5 12q0 0.422-0.047 0.609l-2.438-2.438v-2.203q1.031 0.516 1.758 1.688t0.727 2.344z"></path>
    </symbol>
    <symbol id="icon-volume_up" viewBox="0 0 24 24">
      <path d="M14.016 3.234q3.047 0.656 5.016 3.117t1.969 5.648-1.969 5.648-5.016 3.117v-2.063q2.203-0.656 3.586-2.484t1.383-4.219-1.383-4.219-3.586-2.484v-2.063zM16.5 12q0 2.813-2.484 4.031v-8.063q1.031 0.516 1.758 1.688t0.727 2.344zM3 9h3.984l5.016-5.016v16.031l-5.016-5.016h-3.984v-6z"></path>
    </symbol>
    <symbol id="icon-forward_10" viewBox="0 0 24 24">
      <path d="M13.219 15.188q0 0.328 0.469 0.328 0.234 0 0.328-0.094l0.188-0.234q0.094-0.188 0.094-0.281v-2.016q-0.094-0.188-0.094-0.281t-0.211-0.211-0.305-0.117q-0.141 0-0.281 0.141l-0.188 0.188q-0.141 0.188-0.141 0.281v2.016q0.141 0.188 0.141 0.281zM15.094 14.203q0 0.609-0.094 0.797l-0.281 0.609q-0.328 0.281-0.516 0.281-0.094 0-0.305 0.047t-0.305 0.047q-0.422 0-0.609-0.094-0.094-0.047-0.234-0.141t-0.234-0.141q-0.422-0.234-0.422-1.406v-0.703q0-0.609 0.094-0.797l0.328-0.609q0.281-0.281 0.469-0.281 0.094 0 0.305-0.047t0.305-0.047q0.422 0 0.609 0.094 0.094 0.047 0.258 0.141t0.258 0.141 0.281 0.609q0.094 0.281 0.094 0.797v0.703zM10.922 15.984h-0.938v-3.281l-0.984 0.281v-0.703l1.781-0.563h0.141v4.266zM3.984 12.984q0-3.281 2.344-5.625t5.672-2.344v-4.031l5.016 5.016-5.016 5.016v-4.031q-2.438 0-4.219 1.758t-1.781 4.242 1.781 4.242 4.219 1.758 4.219-1.758 1.781-4.242h2.016q0 3.328-2.367 5.672t-5.648 2.344-5.648-2.344-2.367-5.672z"></path>
    </symbol>
    <symbol id="icon-forward_30" viewBox="0 0 24 24">
      <path d="M3.984 12.984q0-3.281 2.344-5.625t5.672-2.344v-4.031l5.016 5.016-5.016 5.016v-4.031q-2.438 0-4.219 1.758t-1.781 4.242 1.781 4.242 4.219 1.758 4.219-1.758 1.781-4.242h2.016q0 3.328-2.367 5.672t-5.648 2.344-5.648-2.344-2.367-5.672zM13.313 15.188q0 0.328 0.469 0.328 0.234 0 0.328-0.094l0.188-0.234q0.094-0.188 0.094-0.281v-2.016q-0.094-0.188-0.094-0.281t-0.211-0.211-0.305-0.117q-0.141 0-0.281 0.141l-0.188 0.188q-0.094 0.188-0.094 0.281v2.016q0.094 0.188 0.094 0.281zM15.281 14.203q0 0.609-0.094 0.797l-0.281 0.609q-0.328 0.281-0.516 0.281-0.094 0-0.305 0.047t-0.305 0.047q-0.328 0-1.078-0.375-0.094-0.047-0.281-0.609-0.141-0.422-0.141-0.797v-0.703q0-0.516 0.141-0.797l0.281-0.609q0.328-0.281 0.516-0.281 0.094 0 0.281-0.047t0.281-0.047q0.422 0 0.609 0.094 0.094 0.047 0.258 0.141t0.258 0.141 0.281 0.609q0.094 0.281 0.094 0.797v0.703zM9.984 13.5q0.703 0 0.703-0.609v-0.188q-0.094-0.094-0.094-0.188t-0.188-0.094h-0.516q-0.094 0.094-0.188 0.094t-0.094 0.188v0.188h-1.031q0-0.375 0.258-0.727t0.586-0.352q0.047 0 0.234-0.047t0.234-0.047q0.563 0 1.125 0.281 0.375 0.188 0.375 0.891v0.328q-0.094 0.188-0.094 0.281 0 0.188-0.188 0.188-0.094 0-0.328 0.234 0.422 0.234 0.516 0.375 0.188 0.375 0.188 0.609 0 0.422-0.094 0.516-0.047 0.047-0.141 0.188t-0.141 0.188q-0.188 0.188-0.516 0.188-0.094 0-0.305 0.047t-0.305 0.047q-0.375 0-0.469-0.094-0.047-0.047-0.234-0.094t-0.281-0.094q-0.422-0.234-0.422-0.984h0.844v0.188q0.094 0.094 0.094 0.188t0.188 0.094h0.516q0.094-0.094 0.188-0.094t0.094-0.188v-0.516q-0.094-0.094-0.094-0.188t-0.188-0.094h-0.609v-0.703h0.375z"></path>
    </symbol>
    <symbol id="icon-forward_5" viewBox="0 0 24 24">
      <path d="M11.719 13.594q-0.328 0.141-0.328 0.188l-0.094 0.141h-0.609l0.234-2.203h2.391v0.703h-1.734l-0.094 0.891q0.094 0 0.094-0.094 0-0.047 0.070-0.070t0.070-0.070h0.375q0.375 0 0.516 0.141 0.047 0.047 0.188 0.141t0.188 0.141q0.422 0.422 0.422 1.078 0 0.422-0.094 0.516-0.047 0.047-0.141 0.234t-0.188 0.281q-0.375 0.375-1.078 0.375-0.422 0-0.516-0.094-0.047-0.047-0.211-0.094t-0.258-0.094q-0.422-0.234-0.422-0.891h0.797q0 0.469 0.609 0.469 0.188 0 0.281-0.094l0.234-0.188q0.094-0.188 0.094-0.281v-0.609l-0.094-0.188-0.234-0.234q-0.188-0.094-0.281-0.094h-0.188zM3.984 12.984q0-3.281 2.344-5.625t5.672-2.344v-4.031l5.016 5.016-5.016 5.016v-4.031q-2.438 0-4.219 1.758t-1.781 4.242 1.781 4.242 4.219 1.758 4.219-1.758 1.781-4.242h2.016q0 3.328-2.367 5.672t-5.648 2.344-5.648-2.344-2.367-5.672z"></path>
    </symbol>
    <symbol id="icon-replay_10" viewBox="0 0 24 24">
      <path d="M13.219 15.188q0 0.328 0.469 0.328 0.234 0 0.328-0.094l0.188-0.234q0.094-0.188 0.094-0.281v-2.016q-0.094-0.188-0.094-0.281t-0.211-0.211-0.305-0.117q-0.141 0-0.281 0.141l-0.188 0.188q-0.141 0.188-0.141 0.281v2.016q0.141 0.188 0.141 0.281zM15.188 14.203q0 0.609-0.094 0.797l-0.281 0.609q-0.328 0.281-0.516 0.281-0.094 0-0.305 0.047t-0.305 0.047q-0.422 0-0.609-0.094-0.094-0.047-0.234-0.141t-0.234-0.141q-0.422-0.234-0.422-1.406v-0.703q0-0.609 0.094-0.797l0.328-0.609q0.281-0.281 0.469-0.281 0.094 0 0.305-0.047t0.305-0.047q0.422 0 0.609 0.094 0.094 0.047 0.258 0.141t0.258 0.141 0.281 0.609q0.094 0.281 0.094 0.797v0.703zM10.922 15.984h-0.938v-3.281l-0.984 0.281v-0.703l1.781-0.563h0.141v4.266zM12 5.016q3.328 0 5.672 2.344t2.344 5.625q0 3.328-2.367 5.672t-5.648 2.344-5.648-2.344-2.367-5.672h2.016q0 2.484 1.781 4.242t4.219 1.758 4.219-1.758 1.781-4.242-1.781-4.242-4.219-1.758v4.031l-5.016-5.016 5.016-5.016v4.031z"></path>
    </symbol>
    <symbol id="icon-replay_30" viewBox="0 0 24 24">
      <path d="M13.406 15.188q0 0.328 0.516 0.328 0.188 0 0.281-0.094l0.188-0.234q0.094-0.188 0.094-0.281v-2.016q0-0.047-0.047-0.141t-0.047-0.141q0-0.094-0.188-0.211t-0.281-0.117q-0.188 0-0.328 0.141l-0.188 0.188q-0.094 0.188-0.094 0.281v2.016q0.094 0.188 0.094 0.281zM15.281 14.203q0 0.609-0.094 0.797l-0.281 0.609q-0.328 0.281-0.516 0.281-0.094 0-0.305 0.047t-0.305 0.047q-0.328 0-1.078-0.375-0.094-0.047-0.281-0.609-0.141-0.422-0.141-0.797v-0.703q0-0.516 0.141-0.797l0.281-0.609q0.328-0.281 0.516-0.281 0.094 0 0.281-0.047t0.281-0.047q0.422 0 0.609 0.094 0.094 0.047 0.258 0.141t0.258 0.141 0.281 0.609q0.094 0.281 0.094 0.797v0.703zM9.984 13.5q0.703 0 0.703-0.609v-0.188q-0.094-0.094-0.094-0.188t-0.188-0.094h-0.516q-0.094 0.094-0.188 0.094t-0.094 0.188v0.188h-1.031q0-0.375 0.258-0.727t0.586-0.352q0.047 0 0.234-0.047t0.234-0.047q0.563 0 1.125 0.281 0.375 0.188 0.375 0.891v0.328q-0.094 0.188-0.094 0.281 0 0.188-0.188 0.188-0.094 0-0.328 0.234 0.422 0.234 0.516 0.375 0.188 0.375 0.188 0.609 0 0.422-0.094 0.516-0.047 0.047-0.141 0.188t-0.141 0.188q-0.188 0.188-0.516 0.188-0.094 0-0.305 0.047t-0.305 0.047q-0.375 0-0.469-0.094-0.047-0.047-0.234-0.094t-0.281-0.094q-0.422-0.234-0.422-0.984h0.844v0.188q0.094 0.094 0.094 0.188t0.188 0.094h0.516q0.094-0.094 0.188-0.094t0.094-0.188v-0.516q-0.094-0.094-0.094-0.188t-0.188-0.094h-0.609v-0.703h0.375zM12 5.016q3.328 0 5.672 2.344t2.344 5.625q0 3.328-2.367 5.672t-5.648 2.344-5.648-2.344-2.367-5.672h2.016q0 2.484 1.781 4.242t4.219 1.758 4.219-1.758 1.781-4.242-1.781-4.242-4.219-1.758v4.031l-5.016-5.016 5.016-5.016v4.031z"></path>
    </symbol>
    <symbol id="icon-replay_5" viewBox="0 0 24 24">
      <path d="M11.813 13.594q-0.328 0.141-0.328 0.188l-0.094 0.141h-0.703l0.234-2.203h2.391v0.703h-1.734l-0.094 0.891q0.094 0 0.094-0.094 0-0.047 0.070-0.070t0.070-0.070h0.375q0.375 0 0.516 0.141 0.047 0.047 0.188 0.141t0.188 0.141q0.422 0.422 0.422 1.078 0 0.422-0.094 0.516-0.047 0.047-0.141 0.234t-0.188 0.281-0.211 0.164-0.164 0.117q-0.094 0.094-0.609 0.094-0.422 0-0.516-0.094-0.047-0.047-0.211-0.094t-0.258-0.094q-0.422-0.234-0.422-0.891h0.797q0 0.469 0.609 0.469 0.188 0 0.281-0.094l0.234-0.188q0.094-0.188 0.094-0.281v-0.609l-0.094-0.188-0.234-0.234q-0.188-0.094-0.281-0.094h-0.188zM12 5.016q3.328 0 5.672 2.344t2.344 5.625q0 3.328-2.367 5.672t-5.648 2.344-5.648-2.344-2.367-5.672h2.016q0 2.484 1.781 4.242t4.219 1.758 4.219-1.758 1.781-4.242-1.781-4.242-4.219-1.758v4.031l-5.016-5.016 5.016-5.016v4.031z"></path>
    </symbol>
    <symbol id="icon-fiber_manual_record" viewBox="0 0 24 24">
      <path d="M3.984 12q0-3.281 2.367-5.648t5.648-2.367 5.648 2.367 2.367 5.648-2.367 5.648-5.648 2.367-5.648-2.367-2.367-5.648z"></path>
    </symbol>
    <symbol id="icon-fiber_smart_record" viewBox="0 0 24 24">
      <path d="M17.016 4.266q2.625 0.656 4.313 2.813t1.688 4.922-1.688 4.922-4.313 2.813v-2.063q1.641-0.609 2.813-2.273t1.172-3.398-1.172-3.398-2.813-2.273v-2.063zM0.984 12q0-3.281 2.367-5.648t5.648-2.367 5.648 2.367 2.367 5.648-2.367 5.648-5.648 2.367-5.648-2.367-2.367-5.648z"></path>
    </symbol>
    <symbol id="icon-playlist_add_check" viewBox="0 0 24 24">
      <path d="M21.516 11.484l1.5 1.5-6.984 7.031-4.547-4.5 1.5-1.5 3.047 3zM2.016 15.984v-1.969h7.969v1.969h-7.969zM14.016 6v2.016h-12v-2.016h12zM14.016 9.984v2.016h-12v-2.016h12z"></path>
    </symbol>
    <symbol id="icon-control_camera" viewBox="0 0 24 24">
      <path d="M9 12q0-1.219 0.891-2.109t2.109-0.891 2.109 0.891 0.891 2.109-0.891 2.109-2.109 0.891-2.109-0.891-0.891-2.109zM5.531 8.438l1.781 1.781-1.781 1.781 1.781 1.781-1.781 1.781-3.516-3.563zM8.438 18.469l1.781-1.781 1.781 1.781 1.781-1.781 1.781 1.781-3.563 3.516zM18.469 15.563l-1.781-1.781 1.781-1.781-1.781-1.781 1.781-1.781 3.516 3.563zM15.563 5.531l-1.781 1.781-1.781-1.781-1.781 1.781-1.781-1.781 3.563-3.516z"></path>
    </symbol>
    <symbol id="icon-lightbulb" viewBox="0 0 24 24">
      <path d="M12 2.016q2.906 0 4.945 2.039t2.039 4.945q0 3.516-3 5.719v2.297q0 0.422-0.281 0.703t-0.703 0.281h-6q-0.422 0-0.703-0.281t-0.281-0.703v-2.297q-3-2.063-3-5.719 0-2.906 2.039-4.945t4.945-2.039zM9 21v-0.984h6v0.984q0 0.422-0.281 0.703t-0.703 0.281h-4.031q-0.422 0-0.703-0.281t-0.281-0.703z"></path>
    </symbol>
    <symbol id="icon-add" viewBox="0 0 24 24">
      <path d="M18.984 12.984h-6v6h-1.969v-6h-6v-1.969h6v-6h1.969v6h6v1.969z"></path>
    </symbol>
    <symbol id="icon-clear" viewBox="0 0 24 24">
      <path d="M18.984 6.422l-5.578 5.578 5.578 5.578-1.406 1.406-5.578-5.578-5.578 5.578-1.406-1.406 5.578-5.578-5.578-5.578 1.406-1.406 5.578 5.578 5.578-5.578z"></path>
    </symbol>
    <symbol id="icon-content_copy" viewBox="0 0 24 24">
      <path d="M18.984 21v-14.016h-10.969v14.016h10.969zM18.984 5.016q0.797 0 1.406 0.586t0.609 1.383v14.016q0 0.797-0.609 1.406t-1.406 0.609h-10.969q-0.797 0-1.406-0.609t-0.609-1.406v-14.016q0-0.797 0.609-1.383t1.406-0.586h10.969zM15.984 0.984v2.016h-12v14.016h-1.969v-14.016q0-0.797 0.586-1.406t1.383-0.609h12z"></path>
    </symbol>
    <symbol id="icon-content_paste" viewBox="0 0 24 24">
      <path d="M18.984 20.016v-16.031h-1.969v3h-10.031v-3h-1.969v16.031h13.969zM12 2.016q-0.422 0-0.703 0.281t-0.281 0.703 0.281 0.703 0.703 0.281 0.703-0.281 0.281-0.703-0.281-0.703-0.703-0.281zM18.984 2.016q0.797 0 1.406 0.586t0.609 1.383v16.031q0 0.797-0.609 1.383t-1.406 0.586h-13.969q-0.797 0-1.406-0.586t-0.609-1.383v-16.031q0-0.797 0.609-1.383t1.406-0.586h4.172q0.328-0.891 1.078-1.453t1.734-0.563 1.734 0.563 1.078 1.453h4.172z"></path>
    </symbol>
    <symbol id="icon-gesture" viewBox="0 0 24 24">
      <path d="M13.875 18.563q0.656 0 1.313-0.867t0.844-2.648q-1.406 0.375-2.156 1.266t-0.75 1.5q0 0.328 0.234 0.539t0.516 0.211zM4.594 6.891l-1.734-1.688q0.469-0.563 0.844-0.938 1.266-1.266 2.719-1.266 0.891 0 1.711 0.703t0.82 2.156q0 1.406-1.313 3.281-1.313 1.828-1.828 3.516-0.281 0.797-0.164 1.359t0.492 0.563q0.422 0 1.125-0.844 1.031-1.031 2.297-2.719 2.25-2.813 4.922-2.813 1.969 0 2.93 1.289t1.102 2.883h2.484v2.484h-2.438q-0.281 3.234-1.734 4.688t-3 1.453q-1.313 0-2.25-0.914t-0.938-2.18q0-1.547 1.406-3.234t3.984-2.156q-0.047-0.375-0.070-0.516t-0.141-0.445-0.281-0.445-0.492-0.258-0.797-0.117q-1.313 0-4.078 3.422-0.797 0.984-1.102 1.336t-0.867 0.82-1.078 0.609q-1.641 0.516-2.813-0.609t-1.172-2.813q0-0.703 0.258-1.547t0.68-1.641 0.797-1.43 0.727-1.148 0.398-0.563q0.797-1.313 0.281-1.5-0.328-0.141-1.688 1.219z"></path>
    </symbol>
    <symbol id="icon-link1" viewBox="0 0 24 24">
      <path d="M17.016 6.984q2.063 0 3.516 1.477t1.453 3.539-1.453 3.539-3.516 1.477h-4.031v-1.922h4.031q1.266 0 2.18-0.914t0.914-2.18-0.914-2.18-2.18-0.914h-4.031v-1.922h4.031zM8.016 12.984v-1.969h7.969v1.969h-7.969zM3.891 12q0 1.266 0.914 2.18t2.18 0.914h4.031v1.922h-4.031q-2.063 0-3.516-1.477t-1.453-3.539 1.453-3.539 3.516-1.477h4.031v1.922h-4.031q-1.266 0-2.18 0.914t-0.914 2.18z"></path>
    </symbol>
    <symbol id="icon-remove" viewBox="0 0 24 24">
      <path d="M18.984 12.984h-13.969v-1.969h13.969v1.969z"></path>
    </symbol>
    <symbol id="icon-reply" viewBox="0 0 24 24">
      <path d="M9.984 9q4.875 0.703 7.523 3.727t3.492 7.289q-3.609-5.109-11.016-5.109v4.078l-6.984-6.984 6.984-6.984v3.984z"></path>
    </symbol>
    <symbol id="icon-reply_all" viewBox="0 0 24 24">
      <path d="M12.984 9q4.875 0.703 7.523 3.727t3.492 7.289q-3.609-5.109-11.016-5.109v4.078l-6.984-6.984 6.984-6.984v3.984zM6.984 8.016l-3.984 3.984 3.984 3.984v3l-6.984-6.984 6.984-6.984v3z"></path>
    </symbol>
    <symbol id="icon-save_alt" viewBox="0 0 24 24">
      <path d="M12.984 12.656l2.625-2.578 1.406 1.406-5.016 5.016-5.016-5.016 1.406-1.406 2.625 2.578v-9.656h1.969v9.656zM18.984 12h2.016v6.984q0 0.797-0.609 1.406t-1.406 0.609h-13.969q-0.797 0-1.406-0.609t-0.609-1.406v-6.984h2.016v6.984h13.969v-6.984z"></path>
    </symbol>
    <symbol id="icon-file_copy" viewBox="0 0 24 24">
      <path d="M14.016 12h5.484l-5.484-5.484v5.484zM15 5.016l6 6v9.984q0 0.797-0.609 1.406t-1.406 0.609h-11.016q-0.797 0-1.383-0.609t-0.586-1.406v-14.016q0-0.797 0.609-1.383t1.406-0.586h6.984zM15.984 0.984v2.016h-12v14.016h-1.969v-14.016q0-0.797 0.586-1.406t1.383-0.609h12z"></path>
    </symbol>
    <symbol id="icon-access_time" viewBox="0 0 24 24">
      <path d="M12.516 6.984v5.25l4.5 2.672-0.75 1.266-5.25-3.188v-6h1.5zM12 20.016q3.281 0 5.648-2.367t2.367-5.648-2.367-5.648-5.648-2.367-5.648 2.367-2.367 5.648 2.367 5.648 5.648 2.367zM12 2.016q4.125 0 7.055 2.93t2.93 7.055-2.93 7.055-7.055 2.93-7.055-2.93-2.93-7.055 2.93-7.055 7.055-2.93z"></path>
    </symbol>
    <symbol id="icon-insert_drive_file" viewBox="0 0 24 24">
      <path d="M12.984 9h5.531l-5.531-5.484v5.484zM6 2.016h8.016l6 6v12q0 0.797-0.609 1.383t-1.406 0.586h-12q-0.797 0-1.406-0.586t-0.609-1.383l0.047-16.031q0-0.797 0.586-1.383t1.383-0.586z"></path>
    </symbol>
    <symbol id="icon-file_download" viewBox="0 0 24 24">
      <path d="M5.016 18h13.969v2.016h-13.969v-2.016zM18.984 9l-6.984 6.984-6.984-6.984h3.984v-6h6v6h3.984z"></path>
    </symbol>
    <symbol id="icon-file_upload" viewBox="0 0 24 24">
      <path d="M5.016 18h13.969v2.016h-13.969v-2.016zM9 15.984v-6h-3.984l6.984-6.984 6.984 6.984h-3.984v6h-6z"></path>
    </symbol>
    <symbol id="icon-keyboard1" viewBox="0 0 24 24">
      <path d="M18.984 9.984v-1.969h-1.969v1.969h1.969zM18.984 12.984v-1.969h-1.969v1.969h1.969zM15.984 9.984v-1.969h-1.969v1.969h1.969zM15.984 12.984v-1.969h-1.969v1.969h1.969zM15.984 17.016v-2.016h-7.969v2.016h7.969zM6.984 9.984v-1.969h-1.969v1.969h1.969zM6.984 12.984v-1.969h-1.969v1.969h1.969zM8.016 11.016v1.969h1.969v-1.969h-1.969zM8.016 8.016v1.969h1.969v-1.969h-1.969zM11.016 11.016v1.969h1.969v-1.969h-1.969zM11.016 8.016v1.969h1.969v-1.969h-1.969zM20.016 5.016q0.797 0 1.383 0.586t0.586 1.383v10.031q0 0.797-0.586 1.383t-1.383 0.586h-16.031q-0.797 0-1.383-0.586t-0.586-1.383v-10.031q0-0.797 0.586-1.383t1.383-0.586h16.031z"></path>
    </symbol>
    <symbol id="icon-keyboard_arrow_down" viewBox="0 0 24 24">
      <path d="M7.406 8.578l4.594 4.594 4.594-4.594 1.406 1.406-6 6-6-6z"></path>
    </symbol>
    <symbol id="icon-keyboard_arrow_left" viewBox="0 0 24 24">
      <path d="M15.422 16.594l-1.406 1.406-6-6 6-6 1.406 1.406-4.594 4.594z"></path>
    </symbol>
    <symbol id="icon-keyboard_arrow_right" viewBox="0 0 24 24">
      <path d="M8.578 16.594l4.594-4.594-4.594-4.594 1.406-1.406 6 6-6 6z"></path>
    </symbol>
    <symbol id="icon-keyboard_arrow_up" viewBox="0 0 24 24">
      <path d="M7.406 15.422l-1.406-1.406 6-6 6 6-1.406 1.406-4.594-4.594z"></path>
    </symbol>
    <symbol id="icon-keyboard_hide" viewBox="0 0 24 24">
      <path d="M12 23.016l-3.984-4.031h7.969zM18.984 8.016v-2.016h-1.969v2.016h1.969zM18.984 11.016v-2.016h-1.969v2.016h1.969zM15.984 8.016v-2.016h-1.969v2.016h1.969zM15.984 11.016v-2.016h-1.969v2.016h1.969zM15.984 15v-2.016h-7.969v2.016h7.969zM6.984 8.016v-2.016h-1.969v2.016h1.969zM6.984 11.016v-2.016h-1.969v2.016h1.969zM8.016 9v2.016h1.969v-2.016h-1.969zM8.016 6v2.016h1.969v-2.016h-1.969zM11.016 9v2.016h1.969v-2.016h-1.969zM11.016 6v2.016h1.969v-2.016h-1.969zM20.016 3q0.797 0 1.383 0.609t0.586 1.406v9.984q0 0.797-0.586 1.406t-1.383 0.609h-16.031q-0.797 0-1.383-0.609t-0.586-1.406v-9.984q0-0.797 0.586-1.406t1.383-0.609h16.031z"></path>
    </symbol>
    <symbol id="icon-mouse" viewBox="0 0 24 24">
      <path d="M11.016 1.078v7.922h-7.031q0-3.047 2.039-5.297t4.992-2.625zM3.984 15v-3.984h16.031v3.984q0 3.281-2.367 5.648t-5.648 2.367-5.648-2.367-2.367-5.648zM12.984 1.078q2.953 0.375 4.992 2.625t2.039 5.297h-7.031v-7.922z"></path>
    </symbol>
    <symbol id="icon-speaker" viewBox="0 0 24 24">
      <path d="M12 12q1.219 0 2.109 0.891t0.891 2.109-0.891 2.109-2.109 0.891-2.109-0.891-0.891-2.109 0.891-2.109 2.109-0.891zM12 20.016q2.063 0 3.539-1.477t1.477-3.539-1.477-3.539-3.539-1.477-3.539 1.477-1.477 3.539 1.477 3.539 3.539 1.477zM12 3.984q-0.844 0-1.43 0.586t-0.586 1.43 0.586 1.43 1.43 0.586q0.797 0 1.406-0.609t0.609-1.406-0.609-1.406-1.406-0.609zM17.016 2.016q0.797 0 1.383 0.586t0.586 1.383v16.031q0 0.797-0.586 1.383t-1.383 0.586h-10.031q-0.797 0-1.383-0.586t-0.586-1.383v-16.031q0-0.797 0.586-1.383t1.383-0.586h10.031z"></path>
    </symbol>
    <symbol id="icon-speaker_group" viewBox="0 0 24 24">
      <path d="M6 5.016v15.984h9.984v2.016h-9.984q-0.844 0-1.43-0.586t-0.586-1.43v-15.984h2.016zM11.484 12.516q0-1.031 0.75-1.781t1.781-0.75 1.758 0.75 0.727 1.781-0.727 1.758-1.758 0.727-1.781-0.727-0.75-1.758zM14.016 16.5q1.641 0 2.813-1.172t1.172-2.813-1.172-2.836-2.813-1.195-2.836 1.195-1.195 2.836 1.195 2.813 2.836 1.172zM14.016 3q-0.797 0-1.406 0.586t-0.609 1.43 0.586 1.406 1.43 0.563q0.797 0 1.383-0.563t0.586-1.406-0.586-1.43-1.383-0.586zM18.188 0.984q0.75 0 1.289 0.539t0.539 1.289v14.391q0 0.75-0.539 1.266t-1.289 0.516h-8.391q-0.75 0-1.266-0.516t-0.516-1.266v-14.391q0-0.75 0.516-1.289t1.266-0.539h8.391z"></path>
    </symbol>
    <symbol id="icon-headset_off" viewBox="0 0 24 24">
      <path d="M2.25 1.734l20.016 20.016-1.266 1.266-2.156-2.156q-0.422 0.141-0.844 0.141h-3v-3.984l-9.188-9.234q-0.797 1.453-0.797 3.234v1.969h3.984v8.016h-3q-1.219 0-2.109-0.891t-0.891-2.109v-6.984q0-2.625 1.313-4.688l-3.328-3.328zM12 3.984q-2.063 0-3.797 1.125l-1.453-1.406q2.297-1.688 5.25-1.688 3.75 0 6.375 2.648t2.625 6.352v6.891l-4.922-4.922h2.906v-1.969q0-2.906-2.039-4.969t-4.945-2.063z"></path>
    </symbol>
    <symbol id="icon-audiotrack" viewBox="0 0 24 24">
      <path d="M12 3h6.984v3h-3.984v11.016h-0.047q-0.188 1.688-1.453 2.836t-3 1.148q-1.875 0-3.188-1.313t-1.313-3.188 1.313-3.188 3.188-1.313q0.656 0 1.5 0.281v-9.281z"></path>
    </symbol>
    <symbol id="icon-camera_alt" viewBox="0 0 24 24">
      <path d="M12 17.016q2.063 0 3.539-1.477t1.477-3.539-1.477-3.539-3.539-1.477-3.539 1.477-1.477 3.539 1.477 3.539 3.539 1.477zM9 2.016h6l1.828 1.969h3.188q0.797 0 1.383 0.609t0.586 1.406v12q0 0.797-0.586 1.406t-1.383 0.609h-16.031q-0.797 0-1.383-0.609t-0.586-1.406v-12q0-0.797 0.586-1.406t1.383-0.609h3.188zM8.813 12q0-1.313 0.938-2.25t2.25-0.938 2.25 0.938 0.938 2.25-0.938 2.25-2.25 0.938-2.25-0.938-0.938-2.25z"></path>
    </symbol>
    <symbol id="icon-dehaze" viewBox="0 0 24 24">
      <path d="M2.016 5.484h19.969v2.016h-19.969v-2.016zM2.016 10.5h19.969v2.016h-19.969v-2.016zM2.016 15.516h19.969v1.969h-19.969v-1.969z"></path>
    </symbol>
    <symbol id="icon-filter_1" viewBox="0 0 24 24">
      <path d="M21 17.016v-14.016h-14.016v14.016h14.016zM21 0.984q0.797 0 1.406 0.609t0.609 1.406v14.016q0 0.797-0.609 1.383t-1.406 0.586h-14.016q-0.797 0-1.383-0.586t-0.586-1.383v-14.016q0-0.797 0.586-1.406t1.383-0.609h14.016zM14.016 15v-8.016h-2.016v-1.969h3.984v9.984h-1.969zM3 5.016v15.984h15.984v2.016h-15.984q-0.797 0-1.406-0.609t-0.609-1.406v-15.984h2.016z"></path>
    </symbol>
    <symbol id="icon-filter_2" viewBox="0 0 24 24">
      <path d="M17.016 12.984v2.016h-6v-3.984q0-0.844 0.563-1.43t1.406-0.586h2.016v-2.016h-3.984v-1.969h3.984q0.844 0 1.43 0.563t0.586 1.406v2.016q0 0.844-0.586 1.43t-1.43 0.586h-2.016v1.969h4.031zM21 17.016v-14.016h-14.016v14.016h14.016zM21 0.984q0.797 0 1.406 0.609t0.609 1.406v14.016q0 0.797-0.609 1.383t-1.406 0.586h-14.016q-0.797 0-1.383-0.586t-0.586-1.383v-14.016q0-0.797 0.586-1.406t1.383-0.609h14.016zM3 5.016v15.984h15.984v2.016h-15.984q-0.797 0-1.406-0.609t-0.609-1.406v-15.984h2.016z"></path>
    </symbol>
    <symbol id="icon-filter_3" viewBox="0 0 24 24">
      <path d="M17.016 12.984q0 0.844-0.586 1.43t-1.43 0.586h-3.984v-2.016h3.984v-1.969h-2.016v-2.016h2.016v-2.016h-3.984v-1.969h3.984q0.844 0 1.43 0.563t0.586 1.406v1.5q0 0.609-0.445 1.055t-1.055 0.445q0.609 0 1.055 0.445t0.445 1.055v1.5zM3 5.016v15.984h15.984v2.016h-15.984q-0.797 0-1.406-0.609t-0.609-1.406v-15.984h2.016zM21 17.016v-14.016h-14.016v14.016h14.016zM21 0.984q0.797 0 1.406 0.609t0.609 1.406v14.016q0 0.797-0.609 1.383t-1.406 0.586h-14.016q-0.797 0-1.383-0.586t-0.586-1.383v-14.016q0-0.797 0.586-1.406t1.383-0.609h14.016z"></path>
    </symbol>
    <symbol id="icon-filter" viewBox="0 0 24 24">
      <path d="M21 17.016v-14.016h-14.016v14.016h14.016zM21 0.984q0.797 0 1.406 0.609t0.609 1.406v14.016q0 0.797-0.609 1.383t-1.406 0.586h-14.016q-0.797 0-1.383-0.586t-0.586-1.383v-14.016q0-0.797 0.586-1.406t1.383-0.609h14.016zM3 5.016v15.984h15.984v2.016h-15.984q-0.797 0-1.406-0.609t-0.609-1.406v-15.984h2.016zM15.938 10.313l3.563 4.688h-11.016l2.766-3.516 1.969 2.344z"></path>
    </symbol>
    <symbol id="icon-filter_4" viewBox="0 0 24 24">
      <path d="M21 17.016v-14.016h-14.016v14.016h14.016zM21 0.984q0.797 0 1.406 0.609t0.609 1.406v14.016q0 0.797-0.609 1.383t-1.406 0.586h-14.016q-0.797 0-1.383-0.586t-0.586-1.383v-14.016q0-0.797 0.586-1.406t1.383-0.609h14.016zM15 15v-3.984h-3.984v-6h1.969v3.984h2.016v-3.984h2.016v9.984h-2.016zM3 5.016v15.984h15.984v2.016h-15.984q-0.797 0-1.406-0.609t-0.609-1.406v-15.984h2.016z"></path>
    </symbol>
    <symbol id="icon-filter_5" viewBox="0 0 24 24">
      <path d="M17.016 12.984q0 0.844-0.586 1.43t-1.43 0.586h-3.984v-2.016h3.984v-1.969h-3.984v-6h6v1.969h-4.031v2.016h2.016q0.844 0 1.43 0.586t0.586 1.43v1.969zM3 5.016v15.984h15.984v2.016h-15.984q-0.797 0-1.406-0.609t-0.609-1.406v-15.984h2.016zM21 17.016v-14.016h-14.016v14.016h14.016zM21 0.984q0.797 0 1.406 0.609t0.609 1.406v14.016q0 0.797-0.609 1.383t-1.406 0.586h-14.016q-0.797 0-1.383-0.586t-0.586-1.383v-14.016q0-0.797 0.586-1.406t1.383-0.609h14.016z"></path>
    </symbol>
    <symbol id="icon-filter_6" viewBox="0 0 24 24">
      <path d="M12.984 11.016v1.969h2.016v-1.969h-2.016zM12.984 15q-0.844 0-1.406-0.586t-0.563-1.43v-6q0-0.844 0.563-1.406t1.406-0.563h4.031v1.969h-4.031v2.016h2.016q0.844 0 1.43 0.586t0.586 1.43v1.969q0 0.844-0.586 1.43t-1.43 0.586h-2.016zM21 17.016v-14.016h-14.016v14.016h14.016zM21 0.984q0.797 0 1.406 0.609t0.609 1.406v14.016q0 0.797-0.609 1.383t-1.406 0.586h-14.016q-0.797 0-1.383-0.586t-0.586-1.383v-14.016q0-0.797 0.586-1.406t1.383-0.609h14.016zM3 5.016v15.984h15.984v2.016h-15.984q-0.797 0-1.406-0.609t-0.609-1.406v-15.984h2.016z"></path>
    </symbol>
    <symbol id="icon-filter_7" viewBox="0 0 24 24">
      <path d="M12.984 15h-1.969l3.984-8.016h-3.984v-1.969h6v1.969zM21 17.016v-14.016h-14.016v14.016h14.016zM21 0.984q0.797 0 1.406 0.609t0.609 1.406v14.016q0 0.797-0.609 1.383t-1.406 0.586h-14.016q-0.797 0-1.383-0.586t-0.586-1.383v-14.016q0-0.797 0.586-1.406t1.383-0.609h14.016zM3 5.016v15.984h15.984v2.016h-15.984q-0.797 0-1.406-0.609t-0.609-1.406v-15.984h2.016z"></path>
    </symbol>
    <symbol id="icon-filter_8" viewBox="0 0 24 24">
      <path d="M12.984 11.016v1.969h2.016v-1.969h-2.016zM12.984 6.984v2.016h2.016v-2.016h-2.016zM12.984 15q-0.844 0-1.406-0.586t-0.563-1.43v-1.5q0-0.609 0.445-1.055t1.055-0.445q-0.609 0-1.055-0.445t-0.445-1.055v-1.5q0-0.844 0.563-1.406t1.406-0.563h2.016q0.844 0 1.43 0.563t0.586 1.406v1.5q0 0.609-0.445 1.055t-1.055 0.445q0.609 0 1.055 0.445t0.445 1.055v1.5q0 0.844-0.586 1.43t-1.43 0.586h-2.016zM21 17.016v-14.016h-14.016v14.016h14.016zM21 0.984q0.797 0 1.406 0.609t0.609 1.406v14.016q0 0.797-0.609 1.383t-1.406 0.586h-14.016q-0.797 0-1.383-0.586t-0.586-1.383v-14.016q0-0.797 0.586-1.406t1.383-0.609h14.016zM3 5.016v15.984h15.984v2.016h-15.984q-0.797 0-1.406-0.609t-0.609-1.406v-15.984h2.016z"></path>
    </symbol>
    <symbol id="icon-filter_9" viewBox="0 0 24 24">
      <path d="M15 9v-2.016h-2.016v2.016h2.016zM15 5.016q0.844 0 1.43 0.563t0.586 1.406v6q0 0.844-0.586 1.43t-1.43 0.586h-3.984v-2.016h3.984v-1.969h-2.016q-0.844 0-1.406-0.586t-0.563-1.43v-2.016q0-0.844 0.563-1.406t1.406-0.563h2.016zM21 17.016v-14.016h-14.016v14.016h14.016zM21 0.984q0.797 0 1.406 0.609t0.609 1.406v14.016q0 0.797-0.609 1.383t-1.406 0.586h-14.016q-0.797 0-1.383-0.586t-0.586-1.383v-14.016q0-0.797 0.586-1.406t1.383-0.609h14.016zM3 5.016v15.984h15.984v2.016h-15.984q-0.797 0-1.406-0.609t-0.609-1.406v-15.984h2.016z"></path>
    </symbol>
    <symbol id="icon-filter_9_plus" viewBox="0 0 24 24">
      <path d="M21 9v-6h-14.016v14.016h14.016v-6h-2.016v1.969h-1.969v-1.969h-2.016v-2.016h2.016v-2.016h1.969v2.016h2.016zM21 0.984q0.797 0 1.406 0.609t0.609 1.406v14.016q0 0.797-0.609 1.383t-1.406 0.586h-14.016q-0.797 0-1.383-0.586t-0.586-1.383v-14.016q0-0.797 0.586-1.406t1.383-0.609h14.016zM11.016 9h0.984v-0.984h-0.984v0.984zM14.016 12q0 0.844-0.586 1.43t-1.43 0.586h-3v-2.016h3v-0.984h-0.984q-0.844 0-1.43-0.586t-0.586-1.43v-0.984q0-0.844 0.586-1.43t1.43-0.586h0.984q0.844 0 1.43 0.586t0.586 1.43v3.984zM3 5.016v15.984h15.984v2.016h-15.984q-0.797 0-1.406-0.609t-0.609-1.406v-15.984h2.016z"></path>
    </symbol>
    <symbol id="icon-filter_center_focus" viewBox="0 0 24 24">
      <path d="M12 9q1.219 0 2.109 0.891t0.891 2.109-0.891 2.109-2.109 0.891-2.109-0.891-0.891-2.109 0.891-2.109 2.109-0.891zM18.984 18.984v-3.984h2.016v3.984q0 0.797-0.609 1.406t-1.406 0.609h-3.984v-2.016h3.984zM18.984 3q0.797 0 1.406 0.609t0.609 1.406v3.984h-2.016v-3.984h-3.984v-2.016h3.984zM5.016 5.016v3.984h-2.016v-3.984q0-0.797 0.609-1.406t1.406-0.609h3.984v2.016h-3.984zM5.016 15v3.984h3.984v2.016h-3.984q-0.797 0-1.406-0.609t-0.609-1.406v-3.984h2.016z"></path>
    </symbol>
    <symbol id="icon-flare" viewBox="0 0 24 24">
      <path d="M11.016 23.016v-6h1.969v6h-1.969zM5.625 16.969l2.156-2.156 1.406 1.406-2.156 2.156zM14.813 16.219l1.406-1.406 2.156 2.156-1.406 1.406zM12 9q1.219 0 2.109 0.891t0.891 2.109-0.891 2.109-2.109 0.891-2.109-0.891-0.891-2.109 0.891-2.109 2.109-0.891zM17.016 11.016h6v1.969h-6v-1.969zM18.375 7.031l-2.156 2.156-1.406-1.406 2.156-2.156zM12.984 0.984v6h-1.969v-6h1.969zM9.188 7.781l-1.406 1.406-2.156-2.156 1.406-1.406zM6.984 11.016v1.969h-6v-1.969h6z"></path>
    </symbol>
    <symbol id="icon-gradient" viewBox="0 0 24 24">
      <path d="M18.984 11.016v-6h-13.969v6h1.969v1.969h2.016v2.016h2.016v-2.016h1.969v2.016h2.016v-2.016h2.016v-1.969h1.969zM17.016 18v-2.016h-2.016v2.016h2.016zM12.984 18v-2.016h-1.969v2.016h1.969zM9 18v-2.016h-2.016v2.016h2.016zM18.984 3q0.797 0 1.406 0.609t0.609 1.406v13.969q0 0.797-0.609 1.406t-1.406 0.609h-13.969q-0.797 0-1.406-0.609t-0.609-1.406v-13.969q0-0.797 0.609-1.406t1.406-0.609h13.969zM6.984 9h2.016v2.016h-2.016v-2.016zM15 9h2.016v2.016h-2.016v-2.016zM11.016 9h1.969v2.016h2.016v1.969h-2.016v-1.969h-1.969v1.969h-2.016v-1.969h2.016v-2.016zM17.016 12.984v2.016h1.969v-2.016h-1.969zM6.984 12.984h-1.969v2.016h1.969v-2.016z"></path>
    </symbol>
    <symbol id="icon-grain" viewBox="0 0 24 24">
      <path d="M9.984 3.984q0.797 0 1.406 0.609t0.609 1.406-0.609 1.406-1.406 0.609-1.383-0.609-0.586-1.406 0.586-1.406 1.383-0.609zM14.016 8.016q0.797 0 1.383 0.586t0.586 1.383-0.586 1.406-1.383 0.609-1.406-0.609-0.609-1.406 0.609-1.383 1.406-0.586zM18 12q0.797 0 1.406 0.609t0.609 1.406-0.609 1.383-1.406 0.586-1.406-0.586-0.609-1.383 0.609-1.406 1.406-0.609zM14.016 15.984q0.797 0 1.383 0.609t0.586 1.406-0.586 1.406-1.383 0.609-1.406-0.609-0.609-1.406 0.609-1.406 1.406-0.609zM18 8.016q-0.797 0-1.406-0.609t-0.609-1.406 0.609-1.406 1.406-0.609 1.406 0.609 0.609 1.406-0.609 1.406-1.406 0.609zM6 15.984q0.797 0 1.406 0.609t0.609 1.406-0.609 1.406-1.406 0.609-1.406-0.609-0.609-1.406 0.609-1.406 1.406-0.609zM6 8.016q0.797 0 1.406 0.586t0.609 1.383-0.609 1.406-1.406 0.609-1.406-0.609-0.609-1.406 0.609-1.383 1.406-0.586zM9.984 12q0.797 0 1.406 0.609t0.609 1.406-0.609 1.383-1.406 0.586-1.383-0.586-0.586-1.383 0.586-1.406 1.383-0.609z"></path>
    </symbol>
    <symbol id="icon-hdr_strong" viewBox="0 0 24 24">
      <path d="M5.016 14.016q0.797 0 1.383-0.609t0.586-1.406-0.586-1.406-1.383-0.609-1.406 0.609-0.609 1.406 0.609 1.406 1.406 0.609zM5.016 8.016q1.641 0 2.813 1.172t1.172 2.813-1.172 2.813-2.813 1.172-2.836-1.172-1.195-2.813 1.195-2.813 2.836-1.172zM17.016 6q2.484 0 4.242 1.758t1.758 4.242-1.758 4.242-4.242 1.758-4.242-1.758-1.758-4.242 1.758-4.242 4.242-1.758z"></path>
    </symbol>
    <symbol id="icon-hdr_weak" viewBox="0 0 24 24">
      <path d="M17.016 15.984q1.641 0 2.813-1.172t1.172-2.813-1.172-2.813-2.813-1.172-2.836 1.172-1.195 2.813 1.195 2.813 2.836 1.172zM17.016 6q2.484 0 4.242 1.758t1.758 4.242-1.758 4.242-4.242 1.758-4.242-1.758-1.758-4.242 1.758-4.242 4.242-1.758zM5.016 8.016q1.641 0 2.813 1.172t1.172 2.813-1.172 2.813-2.813 1.172-2.836-1.172-1.195-2.813 1.195-2.813 2.836-1.172z"></path>
    </symbol>
    <symbol id="icon-music_note" viewBox="0 0 24 24">
      <path d="M12 3h6v3.984h-3.984v10.031q0 1.641-1.195 2.813t-2.836 1.172-2.813-1.172-1.172-2.813 1.172-2.836 2.813-1.195q0.984 0 2.016 0.563v-10.547z"></path>
    </symbol>
    <symbol id="icon-navigate_before" viewBox="0 0 24 24">
      <path d="M15.422 7.406l-4.594 4.594 4.594 4.594-1.406 1.406-6-6 6-6z"></path>
    </symbol>
    <symbol id="icon-navigate_next" viewBox="0 0 24 24">
      <path d="M9.984 6l6 6-6 6-1.406-1.406 4.594-4.594-4.594-4.594z"></path>
    </symbol>
    <symbol id="icon-rotate_left" viewBox="0 0 24 24">
      <path d="M12.984 4.078q2.953 0.375 4.992 2.625t2.039 5.297-2.039 5.297-4.992 2.625v-2.016q2.156-0.375 3.586-2.039t1.43-3.867-1.43-3.867-3.586-2.039v3.891l-4.547-4.453 4.547-4.547v3.094zM7.078 18.328l1.453-1.453q1.078 0.797 2.484 1.031v2.016q-2.25-0.281-3.938-1.594zM6.094 12.984q0.234 1.359 0.984 2.484l-1.406 1.406q-1.313-1.734-1.594-3.891h2.016zM7.125 8.531q-0.844 1.219-1.031 2.484h-2.016q0.281-2.109 1.641-3.891z"></path>
    </symbol>
    <symbol id="icon-rotate_right" viewBox="0 0 24 24">
      <path d="M16.875 15.469q0.797-1.078 1.031-2.484h2.016q-0.281 2.156-1.594 3.891zM12.984 17.906q1.406-0.234 2.484-1.031l1.453 1.453q-1.688 1.313-3.938 1.594v-2.016zM19.922 11.016h-2.016q-0.234-1.406-1.031-2.484l1.453-1.406q1.359 1.688 1.594 3.891zM15.563 5.531l-4.547 4.453v-3.891q-2.156 0.375-3.586 2.039t-1.43 3.867 1.43 3.867 3.586 2.039v2.016q-2.953-0.375-4.992-2.625t-2.039-5.297 2.039-5.297 4.992-2.625v-3.094z"></path>
    </symbol>
    <symbol id="icon-straighten" viewBox="0 0 24 24">
      <path d="M21 15.984v-7.969h-2.016v3.984h-1.969v-3.984h-2.016v3.984h-2.016v-3.984h-1.969v3.984h-2.016v-3.984h-2.016v3.984h-1.969v-3.984h-2.016v7.969h18zM21 6q0.797 0 1.406 0.609t0.609 1.406v7.969q0 0.797-0.609 1.406t-1.406 0.609h-18q-0.797 0-1.406-0.609t-0.609-1.406v-7.969q0-0.797 0.609-1.406t1.406-0.609h18z"></path>
    </symbol>
    <symbol id="icon-style" viewBox="0 0 24 24">
      <path d="M5.859 19.734v-6.328l3.469 8.344h-1.453q-0.797 0-1.406-0.609t-0.609-1.406zM7.875 8.766q0.422 0 0.703-0.305t0.281-0.727-0.281-0.703-0.703-0.281-0.703 0.281-0.281 0.703 0.281 0.727 0.703 0.305zM22.031 15.938q0.141 0.281 0.141 0.75 0 0.563-0.352 1.125t-0.867 0.75l-7.359 3.047q-0.281 0.141-0.75 0.141-0.563 0-1.102-0.352t-0.773-0.867l-4.969-12q-0.141-0.281-0.141-0.75 0-0.563 0.352-1.078t0.867-0.75l7.406-3.047q0.422-0.141 0.797-0.141 0.516 0 1.031 0.352t0.75 0.867zM2.531 19.641q-0.75-0.328-1.078-1.078t0-1.5l2.438-5.859v9z"></path>
    </symbol>
    <symbol id="icon-texture" viewBox="0 0 24 24">
      <path d="M9.281 21l11.719-11.719v2.859l-8.859 8.859h-2.859zM21 18.984q0 0.797-0.609 1.406t-1.406 0.609h-1.969l3.984-3.984v1.969zM5.016 3h1.969l-3.984 3.984v-1.969q0-0.797 0.609-1.406t1.406-0.609zM11.859 3h2.859l-11.719 11.719v-2.859zM19.5 3.094q1.172 0.328 1.453 1.406l-16.453 16.406q-1.078-0.328-1.406-1.406z"></path>
    </symbol>
    <symbol id="icon-timer_10" viewBox="0 0 24 24">
      <path d="M12.891 13.219v-2.531q0-1.688-0.469-2.484-0.328-0.703-1.406-0.703-0.469 0-0.844 0.141-1.078 0.656-1.078 3.094v2.484q0 1.125 0.094 1.547 0.047 0.234 0.422 0.984t1.406 0.75 1.406-0.75q0.281-0.563 0.375-0.984t0.094-1.547zM7.125 11.016q0-5.109 3.891-5.109 1.922 0 2.813 1.125 1.031 1.313 1.031 3.984v1.922q0 5.156-3.844 5.156-3.891 0-3.891-5.156v-1.922zM20.438 10.453q-1.406 0-1.406 1.078 0 0.656 0.891 0.938 0.281 0.094 0.891 0.234 0.422 0.094 1.313 0.375 0.375 0.141 1.031 0.563 0.375 0.234 0.609 0.75 0.234 0.469 0.234 0.984 0 1.734-2.063 2.438-0.563 0.188-1.406 0.188-2.672 0-3.469-1.828-0.234-0.563-0.234-1.031h1.922q0 0.656 0.516 1.031t1.266 0.375q1.547 0 1.547-1.078 0-0.281-0.141-0.492t-0.281-0.281-0.469-0.211-1.148-0.352-1.102-0.305q-0.375-0.141-0.938-0.516-0.891-0.609-0.891-1.688 0-1.781 1.969-2.438 0.563-0.188 1.359-0.188 1.641 0 2.578 0.797 0.938 0.75 0.938 1.969h-1.969q0-0.984-0.844-1.172-0.563-0.141-0.703-0.141zM0 7.734l4.734-1.734h0.281v12h-2.016v-9.609l-3 1.031v-1.688z"></path>
    </symbol>
    <symbol id="icon-timer_3" viewBox="0 0 24 24">
      <path d="M17.531 10.453q-0.609 0-1.031 0.281t-0.422 0.797v0.047q0 0.563 0.938 0.891 0.328 0.141 0.844 0.234t1.359 0.375q0.375 0.141 1.031 0.563 0.328 0.234 0.609 0.75 0.234 0.469 0.234 0.984 0 1.734-2.063 2.438-0.563 0.188-1.453 0.188-2.625 0-3.422-1.828-0.234-0.563-0.234-1.031h1.875q0 0.609 0.539 1.008t1.289 0.398q1.547 0 1.547-1.078 0-0.281-0.141-0.492t-0.281-0.281-0.469-0.211q-0.234-0.094-0.984-0.281-1.313-0.281-2.25-0.891-0.844-0.563-0.844-1.688 0-1.781 1.969-2.438 0.563-0.188 1.359-0.188 1.641 0 2.578 0.797 0.938 0.75 0.938 1.969h-1.969q0-0.938-0.891-1.172-0.563-0.141-0.656-0.141zM10.078 11.859q1.969 0.656 1.969 2.719 0 1.734-1.125 2.578-1.078 0.938-2.813 0.938t-2.836-0.891-1.102-2.484h2.016q0 0.938 0.516 1.313 0.609 0.469 1.406 0.469 1.969 0 1.969-1.922t-2.156-1.922h-1.219v-1.547h1.172q1.5 0 1.922-1.078 0.094-0.234 0.094-0.75 0-1.781-1.781-1.781-1.219 0-1.688 0.938-0.141 0.281-0.141 0.703h-1.969q0-2.109 2.25-3 0.797-0.234 1.547-0.234 1.781 0 2.766 0.844t0.984 2.531-1.781 2.578z"></path>
    </symbol>
    <symbol id="icon-timer" viewBox="0 0 24 24">
      <path d="M12 20.016q2.906 0 4.945-2.063t2.039-4.969-2.039-4.945-4.945-2.039-4.945 2.039-2.039 4.945 2.039 4.969 4.945 2.063zM19.031 7.406q0.797 1.031 1.383 2.648t0.586 2.93q0 3.703-2.625 6.352t-6.375 2.648-6.375-2.648-2.625-6.352 2.625-6.352 6.375-2.648q1.266 0 2.93 0.609t2.695 1.406l1.406-1.453q0.75 0.609 1.406 1.406zM11.016 14.016v-6h1.969v6h-1.969zM15 0.984v2.016h-6v-2.016h6z"></path>
    </symbol>
    <symbol id="icon-timer_off" viewBox="0 0 24 24">
      <path d="M12 20.016q1.828 0 3.516-0.984l-9.563-9.563q-0.938 1.594-0.938 3.516 0 2.906 2.039 4.969t4.945 2.063zM3 3.984l17.766 17.766-1.266 1.266-2.531-2.531q-2.344 1.5-4.969 1.5-3.75 0-6.375-2.648t-2.625-6.352q0-1.125 0.445-2.602t1.055-2.367l-2.766-2.766zM11.016 9.422v-1.406h1.969v3.422zM15 0.984v2.016h-6v-2.016h6zM19.031 4.547l1.406 1.406-1.406 1.453q1.969 2.484 1.969 5.578v0.047q0 1.125-0.445 2.578t-1.055 2.344l-1.453-1.453q0.938-1.594 0.938-3.516 0-2.906-2.039-4.945t-4.945-2.039q-1.875 0-3.469 0.938l-1.5-1.453q2.391-1.5 4.969-1.5 1.313 0 2.953 0.586t2.672 1.383z"></path>
    </symbol>
    <symbol id="icon-tonality" viewBox="0 0 24 24">
      <path d="M19.734 14.016q0.094-0.281 0.188-1.031h-6.938v1.031h6.75zM18.234 17.016q0.563-0.797 0.703-1.031h-5.953v1.031h5.25zM12.984 19.922q1.5-0.188 2.906-0.938h-2.906v0.938zM12.984 9.984v1.031h6.938q-0.094-0.75-0.188-1.031h-6.75zM12.984 6.984v1.031h5.953q-0.141-0.234-0.703-1.031h-5.25zM12.984 4.078v0.938h2.906q-1.406-0.75-2.906-0.938zM11.016 19.922v-15.844q-2.953 0.375-4.992 2.625t-2.039 5.297 2.039 5.297 4.992 2.625zM12 2.016q4.125 0 7.055 2.93t2.93 7.055-2.93 7.055-7.055 2.93-7.055-2.93-2.93-7.055 2.93-7.055 7.055-2.93z"></path>
    </symbol>
    <symbol id="icon-tune" viewBox="0 0 24 24">
      <path d="M15 9v-6h2.016v2.016h3.984v1.969h-3.984v2.016h-2.016zM21 12.984h-9.984v-1.969h9.984v1.969zM6.984 9h2.016v6h-2.016v-2.016h-3.984v-1.969h3.984v-2.016zM12.984 21h-1.969v-6h1.969v2.016h8.016v1.969h-8.016v2.016zM3 5.016h9.984v1.969h-9.984v-1.969zM3 17.016h6v1.969h-6v-1.969z"></path>
    </symbol>
    <symbol id="icon-photo_size_select_actual" viewBox="0 0 24 24">
      <path d="M5.016 17.016h13.969l-4.5-6-3.469 4.5-2.531-3zM21 3q0.75 0 1.383 0.633t0.633 1.383v13.969q0 0.75-0.633 1.383t-1.383 0.633h-18q-0.797 0-1.406-0.609t-0.609-1.406v-13.969q0-0.75 0.633-1.383t1.383-0.633h18z"></path>
    </symbol>
    <symbol id="icon-linked_camera" viewBox="0 0 24 24">
      <path d="M15.984 6q0.844 0 1.43 0.586t0.586 1.43h1.313q0-1.359-0.984-2.344t-2.344-0.984v1.313zM12 18.984q2.063 0 3.539-1.453t1.477-3.516-1.477-3.539-3.539-1.477-3.539 1.477-1.477 3.539 1.477 3.516 3.539 1.453zM17.016 9h4.969v11.016q0 0.797-0.586 1.383t-1.383 0.586h-16.031q-0.797 0-1.383-0.586t-0.586-1.383v-12q0-0.797 0.586-1.406t1.383-0.609h3.188l1.828-2.016h6v3q0.844 0 1.43 0.586t0.586 1.43zM15.984 3.328v-1.313q2.484 0 4.242 1.758t1.758 4.242h-1.313q0-1.922-1.383-3.305t-3.305-1.383zM8.813 14.016q0-1.359 0.938-2.297t2.25-0.938 2.25 0.938 0.938 2.297-0.938 2.273-2.25 0.914-2.25-0.914-0.938-2.273z"></path>
    </symbol>
    <symbol id="icon-add_a_photo" viewBox="0 0 24 24">
      <path d="M9.797 14.016q0-1.359 0.938-2.297t2.25-0.938q1.359 0 2.297 0.938t0.938 2.297q0 1.313-0.938 2.25t-2.297 0.938-2.273-0.914-0.914-2.273zM12.984 18.984q2.063 0 3.539-1.453t1.477-3.516-1.477-3.539-3.539-1.477-3.516 1.477-1.453 3.539 1.453 3.516 3.516 1.453zM6 9.984v-3h3v-3h6.984l1.828 2.016h3.188q0.797 0 1.406 0.609t0.609 1.406v12q0 0.797-0.609 1.383t-1.406 0.586h-15.984q-0.797 0-1.406-0.586t-0.609-1.383v-10.031h3zM3 3.984v-3h2.016v3h3v2.016h-3v3h-2.016v-3h-3v-2.016h3z"></path>
    </symbol>
    <symbol id="icon-movie_filter" viewBox="0 0 24 24">
      <path d="M16.922 11.953l2.063-0.938-2.063-0.938-0.938-2.063-0.938 2.063-2.063 0.938 2.063 0.938 0.938 2.063zM11.25 15.234l2.766-1.219-2.766-1.266-1.266-2.766-1.219 2.766-2.766 1.266 2.766 1.219 1.219 2.766zM18 3.984h3.984v14.016q0 0.797-0.586 1.406t-1.383 0.609h-16.031q-0.797 0-1.383-0.609t-0.586-1.406v-12q0-0.797 0.586-1.406t1.383-0.609h1.031l1.969 3h3l-1.969-3h1.969l2.016 3h3l-2.016-3h2.016l2.016 3h3z"></path>
    </symbol>
    <symbol id="icon-music_off" viewBox="0 0 24 24">
      <path d="M14.016 6.984v3.188l-2.016-1.969v-5.203h6v3.984h-3.984zM4.266 3l16.734 16.734-1.266 1.266-5.719-5.719v1.734q0 1.641-1.195 2.813t-2.836 1.172-2.813-1.172-1.172-2.813 1.172-2.836 2.813-1.195q0.984 0 2.016 0.563v-0.281l-9-9z"></path>
    </symbol>
    <symbol id="icon-arrow_drop_down" viewBox="0 0 24 24">
      <path d="M6.984 9.984h10.031l-5.016 5.016z"></path>
    </symbol>
    <symbol id="icon-arrow_drop_up" viewBox="0 0 24 24">
      <path d="M6.984 14.016l5.016-5.016 5.016 5.016h-10.031z"></path>
    </symbol>
    <symbol id="icon-arrow_forward" viewBox="0 0 24 24">
      <path d="M12 3.984l8.016 8.016-8.016 8.016-1.406-1.406 5.578-5.625h-12.188v-1.969h12.188l-5.578-5.625z"></path>
    </symbol>
    <symbol id="icon-check1" viewBox="0 0 24 24">
      <path d="M9 16.172l10.594-10.594 1.406 1.406-12 12-5.578-5.578 1.406-1.406z"></path>
    </symbol>
    <symbol id="icon-expand_less" viewBox="0 0 24 24">
      <path d="M12 8.016l6 6-1.406 1.406-4.594-4.594-4.594 4.594-1.406-1.406z"></path>
    </symbol>
    <symbol id="icon-expand_more" viewBox="0 0 24 24">
      <path d="M16.594 8.578l1.406 1.406-6 6-6-6 1.406-1.406 4.594 4.594z"></path>
    </symbol>
    <symbol id="icon-fullscreen" viewBox="0 0 24 24">
      <path d="M14.016 5.016h4.969v4.969h-1.969v-3h-3v-1.969zM17.016 17.016v-3h1.969v4.969h-4.969v-1.969h3zM5.016 9.984v-4.969h4.969v1.969h-3v3h-1.969zM6.984 14.016v3h3v1.969h-4.969v-4.969h1.969z"></path>
    </symbol>
    <symbol id="icon-fullscreen_exit" viewBox="0 0 24 24">
      <path d="M15.984 8.016h3v1.969h-4.969v-4.969h1.969v3zM14.016 18.984v-4.969h4.969v1.969h-3v3h-1.969zM8.016 8.016v-3h1.969v4.969h-4.969v-1.969h3zM5.016 15.984v-1.969h4.969v4.969h-1.969v-3h-3z"></path>
    </symbol>
    <symbol id="icon-keyboard_control" viewBox="0 0 24 24">
      <path d="M12 9.984q0.797 0 1.406 0.609t0.609 1.406-0.609 1.406-1.406 0.609-1.406-0.609-0.609-1.406 0.609-1.406 1.406-0.609zM18 9.984q0.797 0 1.406 0.609t0.609 1.406-0.609 1.406-1.406 0.609-1.406-0.609-0.609-1.406 0.609-1.406 1.406-0.609zM6 9.984q0.797 0 1.406 0.609t0.609 1.406-0.609 1.406-1.406 0.609-1.406-0.609-0.609-1.406 0.609-1.406 1.406-0.609z"></path>
    </symbol>
    <symbol id="icon-more_vert" viewBox="0 0 24 24">
      <path d="M12 15.984q0.797 0 1.406 0.609t0.609 1.406-0.609 1.406-1.406 0.609-1.406-0.609-0.609-1.406 0.609-1.406 1.406-0.609zM12 9.984q0.797 0 1.406 0.609t0.609 1.406-0.609 1.406-1.406 0.609-1.406-0.609-0.609-1.406 0.609-1.406 1.406-0.609zM12 8.016q-0.797 0-1.406-0.609t-0.609-1.406 0.609-1.406 1.406-0.609 1.406 0.609 0.609 1.406-0.609 1.406-1.406 0.609z"></path>
    </symbol>
    <symbol id="icon-refresh" viewBox="0 0 24 24">
      <path d="M17.672 6.328l2.344-2.344v7.031h-7.031l3.234-3.234q-1.781-1.781-4.219-1.781-2.484 0-4.242 1.758t-1.758 4.242 1.758 4.242 4.242 1.758q1.734 0 3.398-1.172t2.273-2.813h2.063q-0.656 2.625-2.813 4.313t-4.922 1.688q-3.281 0-5.625-2.344t-2.344-5.672 2.344-5.672 5.625-2.344q1.406 0 3.070 0.68t2.602 1.664z"></path>
    </symbol>
    <symbol id="icon-unfold_less" viewBox="0 0 24 24">
      <path d="M16.594 5.391l-4.594 4.594-4.594-4.594 1.406-1.406 3.188 3.188 3.188-3.188zM7.406 18.609l4.594-4.594 4.594 4.594-1.406 1.406-3.188-3.188-3.188 3.188z"></path>
    </symbol>
    <symbol id="icon-unfold_more" viewBox="0 0 24 24">
      <path d="M12 18.188l3.188-3.188 1.406 1.406-4.594 4.594-4.594-4.594 1.406-1.406zM12 5.813l-3.188 3.188-1.406-1.406 4.594-4.594 4.594 4.594-1.406 1.406z"></path>
    </symbol>
    <symbol id="icon-arrow_left" viewBox="0 0 24 24">
      <path d="M14.016 6.984v10.031l-5.016-5.016z"></path>
    </symbol>
    <symbol id="icon-arrow_right" viewBox="0 0 24 24">
      <path d="M9.984 17.016v-10.031l5.016 5.016z"></path>
    </symbol>
    <symbol id="icon-share" viewBox="0 0 24 24">
      <path d="M18 16.078q1.219 0 2.063 0.867t0.844 2.039q0 1.219-0.867 2.086t-2.039 0.867-2.039-0.867-0.867-2.086q0-0.469 0.047-0.656l-7.078-4.125q-0.891 0.797-2.063 0.797-1.219 0-2.109-0.891t-0.891-2.109 0.891-2.109 2.109-0.891q1.172 0 2.063 0.797l7.031-4.078q-0.094-0.469-0.094-0.703 0-1.219 0.891-2.109t2.109-0.891 2.109 0.891 0.891 2.109-0.891 2.109-2.109 0.891q-1.125 0-2.063-0.844l-7.031 4.125q0.094 0.469 0.094 0.703t-0.094 0.703l7.125 4.125q0.844-0.75 1.969-0.75z"></path>
    </symbol>
    <symbol id="icon-check_box" viewBox="0 0 24 24">
      <path d="M9.984 17.016l9-9-1.406-1.453-7.594 7.594-3.563-3.563-1.406 1.406zM18.984 3q0.844 0 1.43 0.586t0.586 1.43v13.969q0 0.844-0.586 1.43t-1.43 0.586h-13.969q-0.844 0-1.43-0.586t-0.586-1.43v-13.969q0-0.844 0.586-1.43t1.43-0.586h13.969z"></path>
    </symbol>
    <symbol id="icon-check_box_outline_blank" viewBox="0 0 24 24">
      <path d="M18.984 3q0.797 0 1.406 0.609t0.609 1.406v13.969q0 0.797-0.609 1.406t-1.406 0.609h-13.969q-0.797 0-1.406-0.609t-0.609-1.406v-13.969q0-0.797 0.609-1.406t1.406-0.609h13.969zM18.984 5.016h-13.969v13.969h13.969v-13.969z"></path>
    </symbol>
    <symbol id="icon-autorenew" viewBox="0 0 24 24">
      <path d="M18.75 7.734q1.266 1.922 1.266 4.266 0 3.281-2.367 5.648t-5.648 2.367v3l-3.984-4.031 3.984-3.984v3q2.484 0 4.242-1.758t1.758-4.242q0-1.406-0.703-2.813zM12 6q-2.484 0-4.242 1.758t-1.758 4.242q0 1.5 0.703 2.813l-1.453 1.453q-1.266-1.922-1.266-4.266 0-3.281 2.367-5.648t5.648-2.367v-3l3.984 4.031-3.984 3.984v-3z"></path>
    </symbol>
    <symbol id="icon-check_circle" viewBox="0 0 24 24">
      <path d="M9.984 17.016l9-9-1.406-1.453-7.594 7.594-3.563-3.563-1.406 1.406zM12 2.016q4.125 0 7.055 2.93t2.93 7.055-2.93 7.055-7.055 2.93-7.055-2.93-2.93-7.055 2.93-7.055 7.055-2.93z"></path>
    </symbol>
    <symbol id="icon-favorite" viewBox="0 0 24 24">
      <path d="M12 21.328l-1.453-1.313q-2.484-2.25-3.609-3.328t-2.508-2.672-1.898-2.883-0.516-2.648q0-2.297 1.57-3.891t3.914-1.594q2.719 0 4.5 2.109 1.781-2.109 4.5-2.109 2.344 0 3.914 1.594t1.57 3.891q0 1.828-1.219 3.797t-2.648 3.422-4.664 4.359z"></path>
    </symbol>
    <symbol id="icon-favorite_outline" viewBox="0 0 24 24">
      <path d="M12.094 18.563q2.25-2.016 3.328-3.047t2.344-2.438 1.758-2.484 0.492-2.109q0-1.5-1.008-2.484t-2.508-0.984q-1.172 0-2.18 0.656t-1.383 1.688h-1.875q-0.375-1.031-1.383-1.688t-2.18-0.656q-1.5 0-2.508 0.984t-1.008 2.484q0 1.031 0.492 2.109t1.758 2.484 2.344 2.438 3.328 3.047l0.094 0.094zM16.5 3q2.344 0 3.914 1.594t1.57 3.891q0 1.359-0.516 2.648t-1.898 2.883-2.508 2.672-3.609 3.328l-1.453 1.313-1.453-1.266q-3.234-2.906-4.664-4.359t-2.648-3.422-1.219-3.797q0-2.297 1.57-3.891t3.914-1.594q2.719 0 4.5 2.109 1.781-2.109 4.5-2.109z"></path>
    </symbol>
    <symbol id="icon-help" viewBox="0 0 24 24">
      <path d="M15.047 11.25q0.938-0.938 0.938-2.25 0-1.641-1.172-2.813t-2.813-1.172-2.813 1.172-1.172 2.813h1.969q0-0.797 0.609-1.406t1.406-0.609 1.406 0.609 0.609 1.406-0.609 1.406l-1.219 1.266q-1.172 1.266-1.172 2.813v0.516h1.969q0-1.547 1.172-2.813zM12.984 18.984v-1.969h-1.969v1.969h1.969zM12 2.016q4.125 0 7.055 2.93t2.93 7.055-2.93 7.055-7.055 2.93-7.055-2.93-2.93-7.055 2.93-7.055 7.055-2.93z"></path>
    </symbol>
    <symbol id="icon-power_settings_new" viewBox="0 0 24 24">
      <path d="M17.813 5.156q3.188 2.719 3.188 6.844 0 3.75-2.625 6.375t-6.375 2.625-6.375-2.625-2.625-6.375q0-1.688 0.938-3.703t2.25-3.141l1.406 1.406q-1.078 0.891-1.828 2.484t-0.75 2.953q0 2.906 2.039 4.945t4.945 2.039 4.945-2.039 2.039-4.945q0-1.359-0.75-2.953t-1.828-2.438zM12.984 3v9.984h-1.969v-9.984h1.969z"></path>
    </symbol>
    <symbol id="icon-settings" viewBox="0 0 24 24">
      <path d="M12 15.516q1.453 0 2.484-1.031t1.031-2.484-1.031-2.484-2.484-1.031-2.484 1.031-1.031 2.484 1.031 2.484 2.484 1.031zM19.453 12.984l2.109 1.641q0.328 0.234 0.094 0.656l-2.016 3.469q-0.188 0.328-0.609 0.188l-2.484-0.984q-0.984 0.703-1.688 0.984l-0.375 2.625q-0.094 0.422-0.469 0.422h-4.031q-0.375 0-0.469-0.422l-0.375-2.625q-0.891-0.375-1.688-0.984l-2.484 0.984q-0.422 0.141-0.609-0.188l-2.016-3.469q-0.234-0.422 0.094-0.656l2.109-1.641q-0.047-0.328-0.047-0.984t0.047-0.984l-2.109-1.641q-0.328-0.234-0.094-0.656l2.016-3.469q0.188-0.328 0.609-0.188l2.484 0.984q0.984-0.703 1.688-0.984l0.375-2.625q0.094-0.422 0.469-0.422h4.031q0.375 0 0.469 0.422l0.375 2.625q0.891 0.375 1.688 0.984l2.484-0.984q0.422-0.141 0.609 0.188l2.016 3.469q0.234 0.422-0.094 0.656l-2.109 1.641q0.047 0.328 0.047 0.984t-0.047 0.984z"></path>
    </symbol>
    <symbol id="icon-settings_power" viewBox="0 0 24 24">
      <path d="M15 24v-2.016h2.016v2.016h-2.016zM16.547 4.453q3.469 2.438 3.469 6.563 0 3.281-2.344 5.625t-5.672 2.344-5.672-2.344-2.344-5.625q0-1.734 1.008-3.656t2.461-2.906l1.406 1.406q-2.859 1.781-2.859 5.156 0 2.484 1.758 4.242t4.242 1.758 4.242-1.758 1.758-4.242q0-1.406-0.844-2.906t-2.063-2.203zM12.984 2.016v9.984h-1.969v-9.984h1.969zM11.016 24v-2.016h1.969v2.016h-1.969zM6.984 24v-2.016h2.016v2.016h-2.016z"></path>
    </symbol>
    <symbol id="icon-watch_later" viewBox="0 0 24 24">
      <path d="M16.219 16.219l0.797-1.313-4.5-2.719v-5.203h-1.5v6zM12 2.016q4.125 0 7.055 2.93t2.93 7.055-2.93 7.055-7.055 2.93-7.055-2.93-2.93-7.055 2.93-7.055 7.055-2.93z"></path>
    </symbol>
    <symbol id="icon-check_circle_outline" viewBox="0 0 24 24">
      <path d="M12 20.016q3.281 0 5.648-2.367t2.367-5.648-2.367-5.648-5.648-2.367-5.648 2.367-2.367 5.648 2.367 5.648 5.648 2.367zM12 2.016q4.125 0 7.055 2.93t2.93 7.055-2.93 7.055-7.055 2.93-7.055-2.93-2.93-7.055 2.93-7.055 7.055-2.93zM16.594 7.594l1.406 1.406-8.016 8.016-4.969-5.016 1.406-1.406 3.563 3.563z"></path>
    </symbol>
    <symbol id="icon-library_add_check" viewBox="0 0 24 24">
      <path d="M3.984 6v14.016h14.016v1.969h-14.016q-0.797 0-1.383-0.586t-0.586-1.383v-14.016h1.969zM12.469 14.016l6.516-6.609-1.406-1.406-5.109 5.156-2.063-2.063-1.406 1.406zM20.016 2.016q0.797 0 1.383 0.586t0.586 1.383v12q0 0.797-0.586 1.406t-1.383 0.609h-12q-0.797 0-1.406-0.609t-0.609-1.406v-12q0-0.797 0.609-1.383t1.406-0.586h12z"></path>
    </symbol>
    <symbol id="icon-stop_circle" viewBox="0 0 24 24">
      <path d="M8.016 15.984h7.969v-7.969h-7.969v7.969zM12 2.016q-2.063 0-3.867 0.773t-3.188 2.156-2.156 3.188-0.773 3.867 0.773 3.867 2.156 3.188 3.188 2.156 3.867 0.773 3.867-0.773 3.188-2.156 2.156-3.188 0.773-3.867-0.773-3.867-2.156-3.188-3.188-2.156-3.867-0.773v0z"></path>
    </symbol>
  </defs>
</svg>
